<svg xmlns="http://www.w3.org/2000/svg" xmlns:xlink="http://www.w3.org/1999/xlink" viewBox="0 0 3710 3710"><defs><style>.cls-1{isolation:isolate;}.cls-2,.cls-20,.cls-28,.cls-78{fill:#fff;}.cls-3{fill:#f4f7fa;}.cls-4{fill:url(#linear-gradient);}.cls-125,.cls-126,.cls-20,.cls-25,.cls-49,.cls-5,.cls-55,.cls-56,.cls-7,.cls-79,.cls-84,.cls-95,.cls-96{opacity:0.3;}.cls-125,.cls-136,.cls-137,.cls-139,.cls-17,.cls-19,.cls-25,.cls-42,.cls-49,.cls-5,.cls-55,.cls-7,.cls-79,.cls-84,.cls-92,.cls-95,.cls-96{mix-blend-mode:multiply;}.cls-5{fill:url(#linear-gradient-2);}.cls-6{fill:url(#linear-gradient-3);}.cls-7{fill:url(#linear-gradient-4);}.cls-8{fill:url(#linear-gradient-5);}.cls-9{fill:url(#linear-gradient-6);}.cls-10{fill:url(#linear-gradient-7);}.cls-11{fill:url(#linear-gradient-8);}.cls-12{fill:url(#linear-gradient-9);}.cls-13{fill:url(#linear-gradient-10);}.cls-14{fill:url(#linear-gradient-11);}.cls-15{fill:url(#linear-gradient-12);}.cls-16,.cls-17{fill:#97a6b7;}.cls-136,.cls-17{opacity:0.6;}.cls-18,.cls-19,.cls-56{fill:#d8dee8;}.cls-19,.cls-78{opacity:0.5;}.cls-126,.cls-20,.cls-28,.cls-56,.cls-78{mix-blend-mode:soft-light;}.cls-21{fill:url(#linear-gradient-13);}.cls-22{fill:url(#linear-gradient-14);}.cls-23{fill:url(#linear-gradient-15);}.cls-24{fill:url(#linear-gradient-16);}.cls-25{fill:url(#linear-gradient-17);}.cls-26{fill:url(#linear-gradient-18);}.cls-27{fill:url(#linear-gradient-19);}.cls-29{fill:url(#linear-gradient-20);}.cls-30{fill:url(#linear-gradient-21);}.cls-31{fill:url(#linear-gradient-22);}.cls-32{fill:url(#linear-gradient-23);}.cls-33{fill:url(#linear-gradient-24);}.cls-34{fill:url(#linear-gradient-25);}.cls-35{fill:url(#linear-gradient-26);}.cls-36{fill:url(#linear-gradient-27);}.cls-37{fill:url(#linear-gradient-28);}.cls-38{fill:url(#linear-gradient-29);}.cls-39{fill:url(#linear-gradient-30);}.cls-40{fill:url(#linear-gradient-31);}.cls-41{fill:url(#linear-gradient-32);}.cls-42,.cls-92{opacity:0.2;}.cls-42{fill:url(#linear-gradient-33);}.cls-43{fill:url(#linear-gradient-34);}.cls-44{fill:url(#linear-gradient-35);}.cls-45{fill:url(#linear-gradient-36);}.cls-46{fill:url(#linear-gradient-37);}.cls-47{fill:url(#linear-gradient-38);}.cls-48{fill:url(#linear-gradient-39);}.cls-49{fill:url(#linear-gradient-40);}.cls-50{fill:url(#linear-gradient-41);}.cls-51{fill:url(#linear-gradient-42);}.cls-52{fill:url(#linear-gradient-43);}.cls-53{fill:url(#linear-gradient-44);}.cls-54{fill:url(#linear-gradient-45);}.cls-55{fill:url(#linear-gradient-46);}.cls-57{fill:url(#linear-gradient-47);}.cls-58{fill:url(#linear-gradient-48);}.cls-59{fill:url(#linear-gradient-49);}.cls-60{fill:url(#linear-gradient-50);}.cls-61{fill:url(#linear-gradient-51);}.cls-62{fill:url(#linear-gradient-52);}.cls-63{fill:url(#linear-gradient-53);}.cls-64{fill:url(#linear-gradient-54);}.cls-65{fill:url(#linear-gradient-55);}.cls-66{fill:url(#linear-gradient-56);}.cls-67{fill:url(#linear-gradient-57);}.cls-68{fill:url(#linear-gradient-58);}.cls-69{fill:url(#linear-gradient-59);}.cls-70{fill:url(#linear-gradient-60);}.cls-71{fill:url(#linear-gradient-61);}.cls-72{fill:url(#linear-gradient-62);}.cls-73{fill:url(#linear-gradient-63);}.cls-74{fill:url(#linear-gradient-64);}.cls-75{fill:url(#linear-gradient-65);}.cls-76{fill:url(#linear-gradient-66);}.cls-77{fill:url(#linear-gradient-67);}.cls-79{fill:url(#linear-gradient-68);}.cls-80{fill:url(#linear-gradient-69);}.cls-81{fill:url(#linear-gradient-70);}.cls-82{fill:url(#linear-gradient-71);}.cls-83,.cls-84{fill:url(#linear-gradient-72);}.cls-85{fill:url(#linear-gradient-74);}.cls-86{fill:url(#linear-gradient-75);}.cls-87{fill:url(#linear-gradient-76);}.cls-88{fill:url(#linear-gradient-77);}.cls-89{fill:url(#linear-gradient-78);}.cls-90{fill:url(#linear-gradient-79);}.cls-91{fill:url(#linear-gradient-80);}.cls-93{fill:url(#linear-gradient-81);}.cls-94{fill:url(#linear-gradient-82);}.cls-95{fill:url(#linear-gradient-83);}.cls-96{fill:url(#linear-gradient-84);}.cls-97{fill:url(#linear-gradient-85);}.cls-98{fill:url(#linear-gradient-86);}.cls-99{fill:url(#linear-gradient-87);}.cls-100{fill:url(#linear-gradient-88);}.cls-101{fill:url(#linear-gradient-89);}.cls-102{fill:url(#linear-gradient-90);}.cls-103{fill:url(#linear-gradient-91);}.cls-104{fill:url(#linear-gradient-92);}.cls-105{fill:url(#linear-gradient-93);}.cls-106{fill:url(#linear-gradient-94);}.cls-107{fill:url(#linear-gradient-95);}.cls-108{fill:url(#linear-gradient-96);}.cls-109{fill:url(#linear-gradient-97);}.cls-110{fill:url(#linear-gradient-98);}.cls-111{fill:url(#linear-gradient-99);}.cls-112{fill:url(#linear-gradient-100);}.cls-113{fill:url(#linear-gradient-101);}.cls-114{fill:url(#linear-gradient-102);}.cls-115{fill:url(#linear-gradient-103);}.cls-116{fill:url(#linear-gradient-104);}.cls-117{fill:url(#linear-gradient-105);}.cls-118{fill:url(#linear-gradient-106);}.cls-119{fill:url(#linear-gradient-107);}.cls-120{fill:url(#linear-gradient-108);}.cls-121{fill:url(#linear-gradient-109);}.cls-122{fill:url(#linear-gradient-110);}.cls-123{fill:url(#linear-gradient-111);}.cls-124{fill:url(#linear-gradient-112);}.cls-125{fill:url(#linear-gradient-113);}.cls-126{fill:url(#linear-gradient-114);}.cls-127{fill:url(#linear-gradient-115);}.cls-128{fill:url(#linear-gradient-116);}.cls-129{fill:url(#linear-gradient-117);}.cls-130{fill:url(#linear-gradient-118);}.cls-131{fill:url(#linear-gradient-119);}.cls-132{fill:url(#linear-gradient-120);}.cls-133{fill:url(#linear-gradient-121);}.cls-134{fill:url(#linear-gradient-122);}.cls-135{fill:url(#linear-gradient-123);}.cls-136{fill:url(#linear-gradient-124);}.cls-137,.cls-139{opacity:0.15;}.cls-137{fill:url(#linear-gradient-125);}.cls-138{fill:url(#linear-gradient-126);}.cls-140{fill:url(#linear-gradient-127);}.cls-141{fill:url(#linear-gradient-128);}.cls-142{fill:url(#linear-gradient-129);}.cls-143{fill:url(#linear-gradient-130);}.cls-144{fill:url(#linear-gradient-131);}</style><linearGradient id="linear-gradient" x1="2904.77" y1="1224.58" x2="2000.83" y2="2715.05" gradientUnits="userSpaceOnUse"><stop offset="0" stop-color="#ff9085"/><stop offset="1" stop-color="#fb6fbb"/></linearGradient><linearGradient id="linear-gradient-2" x1="5917.28" y1="-202.73" x2="5091.55" y2="3486.25" gradientTransform="matrix(-0.95, 0.31, 0.31, 0.95, 7443.37, -1301.35)" xlink:href="#linear-gradient"/><linearGradient id="linear-gradient-3" x1="2597.37" y1="1254.3" x2="1182.8" y2="3096.68" gradientUnits="userSpaceOnUse"><stop offset="0" stop-color="#e38ddd"/><stop offset="1" stop-color="#9571f6"/></linearGradient><linearGradient id="linear-gradient-4" x1="2551.27" y1="1157.93" x2="812.39" y2="3303.92" gradientUnits="userSpaceOnUse"><stop offset="0" stop-color="#e38ddd"/><stop offset="0.43" stop-color="#c181e8"/><stop offset="1" stop-color="#9571f6"/></linearGradient><linearGradient id="linear-gradient-5" x1="925.82" y1="1730.94" x2="2986.59" y2="1730.94" gradientUnits="userSpaceOnUse"><stop offset="0" stop-color="#d8dee8"/><stop offset="1" stop-color="#fff"/></linearGradient><linearGradient id="linear-gradient-6" x1="925.83" y1="1286.17" x2="2984" y2="1286.17" xlink:href="#linear-gradient"/><linearGradient id="linear-gradient-7" x1="2131.79" y1="1601.81" x2="2124.64" y2="1842.51" xlink:href="#linear-gradient-5"/><linearGradient id="linear-gradient-8" x1="621.65" y1="1731.03" x2="1263.36" y2="1731.03" xlink:href="#linear-gradient-5"/><linearGradient id="linear-gradient-9" x1="904.08" y1="2235.69" x2="941.73" y2="1454.32" xlink:href="#linear-gradient-5"/><linearGradient id="linear-gradient-10" x1="1067.01" y1="1458.61" x2="1067.01" y2="2532.03" xlink:href="#linear-gradient-5"/><linearGradient id="linear-gradient-11" x1="604.17" y1="1533.01" x2="1534.98" y2="3043.98" xlink:href="#linear-gradient-5"/><linearGradient id="linear-gradient-12" x1="914.47" y1="1467.76" x2="914.47" y2="2482.13" xlink:href="#linear-gradient-5"/><linearGradient id="linear-gradient-13" x1="2908.23" y1="2346.7" x2="4205.91" y2="2435.18" gradientTransform="matrix(-1, 0, 0, 1, 6165.55, 0)" gradientUnits="userSpaceOnUse"><stop offset="0" stop-color="#aa80f9"/><stop offset="1" stop-color="#6165d7"/></linearGradient><linearGradient id="linear-gradient-14" x1="3700.17" y1="1245.58" x2="3611.94" y2="3427.83" xlink:href="#linear-gradient-13"/><linearGradient id="linear-gradient-15" x1="4001.17" y1="2094.81" x2="2471.24" y2="3174.98" gradientTransform="matrix(-1, 0, 0, 1, 6165.55, 0)" xlink:href="#linear-gradient-3"/><linearGradient id="linear-gradient-16" x1="3761.28" y1="2292.35" x2="3643.31" y2="2985.43" gradientTransform="matrix(-1, 0, 0, 1, 6165.55, 0)" xlink:href="#linear-gradient-3"/><linearGradient id="linear-gradient-17" x1="3296.56" y1="2375.99" x2="3917.7" y2="2375.99" gradientTransform="matrix(-1, 0, 0, 1, 6165.55, 0)" xlink:href="#linear-gradient-3"/><linearGradient id="linear-gradient-18" x1="4694.3" y1="2454.06" x2="3145.93" y2="1877.11" gradientTransform="matrix(-1, 0, 0, 1, 6165.55, 0)" gradientUnits="userSpaceOnUse"><stop offset="0" stop-color="#311944"/><stop offset="1" stop-color="#893976"/></linearGradient><linearGradient id="linear-gradient-19" x1="3685.55" y1="1858.55" x2="3668.87" y2="2270.93" gradientTransform="matrix(-1, 0, 0, 1, 6165.55, 0)" xlink:href="#linear-gradient"/><linearGradient id="linear-gradient-20" x1="3070.33" y1="3166.29" x2="3772.7" y2="1904.4" xlink:href="#linear-gradient-18"/><linearGradient id="linear-gradient-21" x1="3469.48" y1="1871.03" x2="4555.18" y2="2873.77" gradientTransform="matrix(-1, 0, 0, 1, 6165.55, 0)" xlink:href="#linear-gradient"/><linearGradient id="linear-gradient-22" x1="3459.35" y1="1882" x2="4545.05" y2="2884.75" gradientTransform="matrix(-1, 0, 0, 1, 6165.55, 0)" xlink:href="#linear-gradient"/><linearGradient id="linear-gradient-23" x1="3546.88" y1="1787.23" x2="4632.58" y2="2789.98" gradientTransform="matrix(-1, 0, 0, 1, 6165.55, 0)" xlink:href="#linear-gradient"/><linearGradient id="linear-gradient-24" x1="3379.54" y1="1968.41" x2="4465.24" y2="2971.16" gradientTransform="matrix(-1, 0, 0, 1, 6165.55, 0)" xlink:href="#linear-gradient"/><linearGradient id="linear-gradient-25" x1="4553.77" y1="2831.2" x2="3005.4" y2="2254.25" xlink:href="#linear-gradient-18"/><linearGradient id="linear-gradient-26" x1="3687.36" y1="2189.34" x2="3663.19" y2="2787.19" gradientTransform="matrix(-1, 0, 0, 1, 6165.55, 0)" xlink:href="#linear-gradient"/><linearGradient id="linear-gradient-27" x1="3251.52" y1="3267.14" x2="3953.89" y2="2005.26" xlink:href="#linear-gradient-18"/><linearGradient id="linear-gradient-28" x1="3254.25" y1="2104.07" x2="4339.94" y2="3106.81" gradientTransform="matrix(-1, 0, 0, 1, 6165.55, 0)" xlink:href="#linear-gradient"/><linearGradient id="linear-gradient-29" x1="3247.98" y1="2110.85" x2="4333.68" y2="3113.61" gradientTransform="matrix(-1, 0, 0, 1, 6165.55, 0)" xlink:href="#linear-gradient"/><linearGradient id="linear-gradient-30" x1="3373.55" y1="1974.9" x2="4459.25" y2="2977.65" gradientTransform="matrix(-1, 0, 0, 1, 6165.55, 0)" xlink:href="#linear-gradient"/><linearGradient id="linear-gradient-31" x1="3123.66" y1="2245.46" x2="4209.36" y2="3248.21" gradientTransform="matrix(-1, 0, 0, 1, 6165.55, 0)" xlink:href="#linear-gradient"/><linearGradient id="linear-gradient-32" x1="2863.91" y1="1628.29" x2="3220.27" y2="1628.29" gradientTransform="translate(-265.73 1005.44) rotate(-7.16)" gradientUnits="userSpaceOnUse"><stop offset="0" stop-color="#ffc444"/><stop offset="1" stop-color="#f36f56"/></linearGradient><linearGradient id="linear-gradient-33" x1="2863.91" y1="1713.24" x2="3220.27" y2="1713.24" xlink:href="#linear-gradient-32"/><linearGradient id="linear-gradient-34" x1="3401.06" y1="1943.29" x2="3325.92" y2="1982.58" gradientTransform="translate(407.19 -1072.02) rotate(19.81)" gradientUnits="userSpaceOnUse"><stop offset="0" stop-color="#311944"/><stop offset="0.22" stop-color="#49204e"/><stop offset="0.31" stop-color="#532353"/><stop offset="1" stop-color="#a03976"/></linearGradient><linearGradient id="linear-gradient-35" x1="805.04" y1="1271.19" x2="577.37" y2="1344.25" gradientUnits="userSpaceOnUse"><stop offset="0" stop-color="#fcb148"/><stop offset="0.05" stop-color="#fdba46"/><stop offset="0.14" stop-color="#ffc244"/><stop offset="0.32" stop-color="#ffc444"/><stop offset="0.48" stop-color="#fdb946"/><stop offset="0.78" stop-color="#f99c4d"/><stop offset="0.87" stop-color="#f8924f"/><stop offset="1" stop-color="#f8924f"/></linearGradient><linearGradient id="linear-gradient-36" x1="989.21" y1="1044.56" x2="785.96" y2="1492.97" gradientUnits="userSpaceOnUse"><stop offset="0" stop-color="#ffdb44"/><stop offset="1" stop-color="#feef06"/></linearGradient><linearGradient id="linear-gradient-37" x1="951.83" y1="1518.03" x2="912.61" y2="1303.79" xlink:href="#linear-gradient-35"/><linearGradient id="linear-gradient-38" x1="868.68" y1="1171.26" x2="1030.3" y2="1514.35" xlink:href="#linear-gradient-35"/><linearGradient id="linear-gradient-39" x1="862.24" y1="1097.43" x2="943.51" y2="1402.01" xlink:href="#linear-gradient-36"/><linearGradient id="linear-gradient-40" x1="821.13" y1="1193.46" x2="982.42" y2="1535.86" xlink:href="#linear-gradient-35"/><linearGradient id="linear-gradient-41" x1="1115.63" y1="841.89" x2="817.41" y2="937.59" xlink:href="#linear-gradient-35"/><linearGradient id="linear-gradient-42" x1="1356.87" y1="545.04" x2="1090.64" y2="1132.4" xlink:href="#linear-gradient-36"/><linearGradient id="linear-gradient-43" x1="1307.9" y1="1165.22" x2="1256.53" y2="884.59" xlink:href="#linear-gradient-35"/><linearGradient id="linear-gradient-44" x1="1198.99" y1="710.99" x2="1410.69" y2="1160.39" xlink:href="#linear-gradient-35"/><linearGradient id="linear-gradient-45" x1="1190.55" y1="614.28" x2="1297" y2="1013.24" xlink:href="#linear-gradient-36"/><linearGradient id="linear-gradient-46" x1="1136.7" y1="740.07" x2="1347.98" y2="1188.57" xlink:href="#linear-gradient-35"/><linearGradient id="linear-gradient-47" x1="1661.87" y1="2446.26" x2="1805.45" y2="2079.5" gradientTransform="matrix(1, 0, 0, 1, 0, 0)" xlink:href="#linear-gradient-18"/><linearGradient id="linear-gradient-48" x1="1932.08" y1="2629.51" x2="2102.41" y2="2194.4" gradientTransform="matrix(1, 0, 0, 1, 0, 0)" xlink:href="#linear-gradient-18"/><linearGradient id="linear-gradient-49" x1="1688.35" y1="2386.9" x2="1810.78" y2="2074.16" gradientTransform="matrix(1, 0, 0, 1, 0, 0)" xlink:href="#linear-gradient-18"/><linearGradient id="linear-gradient-50" x1="1610.02" y1="2379.19" x2="1744.34" y2="2036.06" gradientTransform="matrix(1, 0, 0, 1, 0, 0)" xlink:href="#linear-gradient-18"/><linearGradient id="linear-gradient-51" x1="1618.18" y1="2441.95" x2="1530.53" y2="2576.79" gradientTransform="matrix(1, 0, 0, 1, 0, 0)" xlink:href="#linear-gradient-18"/><linearGradient id="linear-gradient-52" x1="1845.65" y1="2346.01" x2="1681.75" y2="2598.16" gradientTransform="matrix(1, 0, 0, 1, 0, 0)" xlink:href="#linear-gradient-18"/><linearGradient id="linear-gradient-53" x1="1786.69" y1="2435.89" x2="1688.67" y2="2586.7" xlink:href="#linear-gradient-3"/><linearGradient id="linear-gradient-54" x1="1621.15" y1="2160.78" x2="1467.65" y2="2396.94" gradientTransform="matrix(1, 0, 0, 1, 0, 0)" xlink:href="#linear-gradient-18"/><linearGradient id="linear-gradient-55" x1="1672.66" y1="1875.59" x2="1582.06" y2="2050.14" xlink:href="#linear-gradient"/><linearGradient id="linear-gradient-56" x1="1974.21" y1="1988.37" x2="1882.4" y2="2165.27" xlink:href="#linear-gradient"/><linearGradient id="linear-gradient-57" x1="1396.96" y1="2965.72" x2="1454.43" y2="2835" gradientTransform="translate(12.54)" xlink:href="#linear-gradient-13"/><linearGradient id="linear-gradient-58" x1="-713.14" y1="2905.93" x2="-160.34" y2="2905.93" gradientTransform="matrix(-1, 0, 0, 1, 1404.41, 0)" xlink:href="#linear-gradient-5"/><linearGradient id="linear-gradient-59" x1="1539.62" y1="2906.16" x2="2115.3" y2="2906.16" gradientTransform="translate(12.54)" xlink:href="#linear-gradient-13"/><linearGradient id="linear-gradient-60" x1="1482.18" y1="2602.74" x2="1378.56" y2="2951.79" gradientTransform="translate(12.54)" xlink:href="#linear-gradient-32"/><linearGradient id="linear-gradient-61" x1="-713.14" y1="2749.82" x2="-160.34" y2="2749.82" gradientTransform="matrix(-1, 0, 0, 1, 1404.41, 0)" xlink:href="#linear-gradient-5"/><linearGradient id="linear-gradient-62" x1="1539.62" y1="2750.88" x2="2115.3" y2="2750.88" gradientTransform="translate(12.54)" xlink:href="#linear-gradient-32"/><linearGradient id="linear-gradient-63" x1="1267.32" y1="2589.62" x2="1577.11" y2="2589.62" gradientTransform="translate(12.54)" xlink:href="#linear-gradient"/><linearGradient id="linear-gradient-64" x1="1247.78" y1="2587.28" x2="1384.52" y2="2588.77" gradientTransform="translate(12.54)" xlink:href="#linear-gradient-13"/><linearGradient id="linear-gradient-65" x1="-713.14" y1="2590.31" x2="-160.34" y2="2590.31" gradientTransform="matrix(-1, 0, 0, 1, 1404.41, 0)" xlink:href="#linear-gradient-5"/><linearGradient id="linear-gradient-66" x1="1539.62" y1="2533.42" x2="2115.3" y2="2533.42" gradientTransform="translate(12.54)" xlink:href="#linear-gradient-13"/><linearGradient id="linear-gradient-67" x1="1539.62" y1="2647.6" x2="2115.3" y2="2647.6" gradientTransform="translate(12.54)" xlink:href="#linear-gradient-13"/><linearGradient id="linear-gradient-68" x1="1357.72" y1="2664.27" x2="1335.16" y2="2630.87" gradientTransform="translate(12.54)" xlink:href="#linear-gradient-32"/><linearGradient id="linear-gradient-69" x1="1351.49" y1="2655.04" x2="1318.53" y2="2606.25" gradientTransform="translate(12.54)" xlink:href="#linear-gradient-13"/><linearGradient id="linear-gradient-70" x1="1717.59" y1="2872.22" x2="1819.3" y2="2872.22" gradientUnits="userSpaceOnUse"><stop offset="0" stop-color="#444b8c"/><stop offset="1" stop-color="#26264f"/></linearGradient><linearGradient id="linear-gradient-71" x1="1930.02" y1="2686.65" x2="1928.32" y2="2957.28" gradientUnits="userSpaceOnUse"><stop offset="0" stop-color="#311944"/><stop offset="1" stop-color="#a03976"/></linearGradient><linearGradient id="linear-gradient-72" x1="2096.47" y1="2709.95" x2="1925.36" y2="2998.53" xlink:href="#linear-gradient"/><linearGradient id="linear-gradient-74" x1="1647.34" y1="2909.11" x2="1749.06" y2="2909.11" xlink:href="#linear-gradient-70"/><linearGradient id="linear-gradient-75" x1="1859.78" y1="2723.54" x2="1858.08" y2="2994.17" xlink:href="#linear-gradient-71"/><linearGradient id="linear-gradient-76" x1="1936.32" y1="2917.35" x2="1853.74" y2="3192.32" xlink:href="#linear-gradient"/><linearGradient id="linear-gradient-77" x1="2614.92" y1="2550.8" x2="2330.62" y2="3033.06" gradientTransform="matrix(1, 0, 0, 1, 0, 0)" xlink:href="#linear-gradient-13"/><linearGradient id="linear-gradient-78" x1="2356.14" y1="2985.1" x2="1739.61" y2="4321.93" gradientTransform="matrix(0.99, -0.06, 0, 1.01, 11.86, 135.73)" xlink:href="#linear-gradient"/><linearGradient id="linear-gradient-79" x1="2566.04" y1="2846.54" x2="2286.46" y2="3452.75" gradientTransform="matrix(0.99, -0.06, 0, 1.01, 11.86, 135.73)" xlink:href="#linear-gradient"/><linearGradient id="linear-gradient-80" x1="2447.1" y1="2638.08" x2="2397.57" y2="2745.47" gradientTransform="matrix(0.99, -0.06, 0, 1.01, 11.86, 135.73)" xlink:href="#linear-gradient"/><linearGradient id="linear-gradient-81" x1="2011.63" y1="2871.55" x2="2305.77" y2="2871.55" gradientTransform="matrix(1, -0.02, 0.02, 1, 171.24, 29.3)" xlink:href="#linear-gradient"/><linearGradient id="linear-gradient-82" x1="5180.52" y1="3913.19" x2="5392.37" y2="4306.63" gradientTransform="translate(-2367.58 -1325.78) rotate(1.07)" xlink:href="#linear-gradient-70"/><linearGradient id="linear-gradient-83" x1="5253.66" y1="3973.86" x2="5407.82" y2="3973.86" gradientTransform="translate(-2367.58 -1325.78) rotate(1.07)" gradientUnits="userSpaceOnUse"><stop offset="0" stop-color="#40447e"/><stop offset="1" stop-color="#3c3b6b"/></linearGradient><linearGradient id="linear-gradient-84" x1="5429.97" y1="4112.25" x2="5539.71" y2="3999.4" gradientTransform="translate(-2367.58 -1325.78) rotate(1.07)" xlink:href="#linear-gradient-70"/><linearGradient id="linear-gradient-85" x1="5203.38" y1="4069.64" x2="5112.68" y2="3922.05" gradientTransform="translate(-2367.58 -1325.78) rotate(1.07)" xlink:href="#linear-gradient-70"/><linearGradient id="linear-gradient-86" x1="5202.07" y1="4092.13" x2="5304.88" y2="4092.13" gradientTransform="translate(-2367.58 -1325.78) rotate(1.07)" xlink:href="#linear-gradient-70"/><linearGradient id="linear-gradient-87" x1="5244.31" y1="4004.3" x2="5250.12" y2="4058.28" gradientTransform="translate(-2367.58 -1325.78) rotate(1.07)" xlink:href="#linear-gradient-70"/><linearGradient id="linear-gradient-88" x1="5260.69" y1="4069.16" x2="5250.76" y2="4160.8" gradientTransform="translate(-2367.58 -1325.78) rotate(1.07)" xlink:href="#linear-gradient-70"/><linearGradient id="linear-gradient-89" x1="5258.75" y1="4058.16" x2="5257.85" y2="4136.47" gradientTransform="translate(-2367.58 -1325.78) rotate(1.07)" xlink:href="#linear-gradient-70"/><linearGradient id="linear-gradient-90" x1="5360.04" y1="4079.7" x2="5452.57" y2="4079.7" gradientTransform="translate(-2367.58 -1325.78) rotate(1.07)" xlink:href="#linear-gradient-70"/><linearGradient id="linear-gradient-91" x1="5396.13" y1="3982.95" x2="5401.86" y2="4036.11" gradientTransform="translate(-2367.58 -1325.78) rotate(1.07)" xlink:href="#linear-gradient-70"/><linearGradient id="linear-gradient-92" x1="5415.07" y1="4057.04" x2="5405.3" y2="4147.24" gradientTransform="translate(-2367.58 -1325.78) rotate(1.07)" xlink:href="#linear-gradient-70"/><linearGradient id="linear-gradient-93" x1="5413.16" y1="4046.21" x2="5412.28" y2="4123.31" gradientTransform="translate(-2367.58 -1325.78) rotate(1.07)" xlink:href="#linear-gradient-70"/><linearGradient id="linear-gradient-94" x1="5221.14" y1="3919.08" x2="5241.04" y2="3976.92" gradientTransform="translate(-2367.58 -1325.78) rotate(1.07)" xlink:href="#linear-gradient-13"/><linearGradient id="linear-gradient-95" x1="5391.09" y1="3855.44" x2="5410.62" y2="3912.19" gradientTransform="translate(-2367.58 -1325.78) rotate(1.07)" xlink:href="#linear-gradient-13"/><linearGradient id="linear-gradient-96" x1="5234.1" y1="4042.37" x2="5218.18" y2="4027.07" gradientTransform="translate(-2367.58 -1325.78) rotate(1.07)" xlink:href="#linear-gradient-13"/><linearGradient id="linear-gradient-97" x1="5203.53" y1="4074.6" x2="5187.65" y2="4059.34" gradientTransform="translate(-2367.58 -1325.78) rotate(1.07)" xlink:href="#linear-gradient-13"/><linearGradient id="linear-gradient-98" x1="5202.74" y1="4074.46" x2="5187.01" y2="4059.34" gradientTransform="translate(-2367.58 -1325.78) rotate(1.07)" xlink:href="#linear-gradient-13"/><linearGradient id="linear-gradient-99" x1="5233.04" y1="4041.34" x2="5217.45" y2="4026.36" gradientTransform="translate(-2367.58 -1325.78) rotate(1.07)" xlink:href="#linear-gradient-13"/><linearGradient id="linear-gradient-100" x1="5178.14" y1="3993.36" x2="5211.75" y2="4064.73" gradientTransform="translate(-2367.58 -1325.78) rotate(1.07)" xlink:href="#linear-gradient-13"/><linearGradient id="linear-gradient-101" x1="5153.4" y1="4005.46" x2="5186.94" y2="4076.69" gradientTransform="translate(-2367.58 -1325.78) rotate(1.07)" xlink:href="#linear-gradient-13"/><linearGradient id="linear-gradient-102" x1="5141.51" y1="4011.82" x2="5174.84" y2="4082.61" gradientTransform="translate(-2367.58 -1325.78) rotate(1.07)" xlink:href="#linear-gradient-13"/><linearGradient id="linear-gradient-103" x1="5189.63" y1="3987.45" x2="5222.71" y2="4057.7" gradientTransform="translate(-2367.58 -1325.78) rotate(1.07)" xlink:href="#linear-gradient-13"/><linearGradient id="linear-gradient-104" x1="5514.82" y1="4047.95" x2="5421.73" y2="3895.98" gradientTransform="translate(-2367.58 -1325.78) rotate(1.07)" xlink:href="#linear-gradient-70"/><linearGradient id="linear-gradient-105" x1="5556.96" y1="4030.63" x2="5536.3" y2="4009.98" gradientTransform="translate(-2367.58 -1325.78) rotate(1.07)" xlink:href="#linear-gradient-13"/><linearGradient id="linear-gradient-106" x1="5520.81" y1="4069.01" x2="5500.22" y2="4048.42" gradientTransform="translate(-2367.58 -1325.78) rotate(1.07)" xlink:href="#linear-gradient-13"/><linearGradient id="linear-gradient-107" x1="5522" y1="4068.66" x2="5501.29" y2="4047.94" gradientTransform="translate(-2367.58 -1325.78) rotate(1.07)" xlink:href="#linear-gradient-13"/><linearGradient id="linear-gradient-108" x1="5555.37" y1="4031.39" x2="5534.83" y2="4010.85" gradientTransform="translate(-2367.58 -1325.78) rotate(1.07)" xlink:href="#linear-gradient-13"/><linearGradient id="linear-gradient-109" x1="5490.55" y1="3975.15" x2="5528.63" y2="4105.73" gradientTransform="translate(-2367.58 -1325.78) rotate(1.07)" xlink:href="#linear-gradient-13"/><linearGradient id="linear-gradient-110" x1="5470.74" y1="3981.6" x2="5508.8" y2="4112.09" gradientTransform="translate(-2367.58 -1325.78) rotate(1.07)" xlink:href="#linear-gradient-13"/><linearGradient id="linear-gradient-111" x1="5449.21" y1="3988.88" x2="5487.41" y2="4119.86" gradientTransform="translate(-2367.58 -1325.78) rotate(1.07)" xlink:href="#linear-gradient-13"/><linearGradient id="linear-gradient-112" x1="5511.37" y1="3968.08" x2="5549.31" y2="4098.17" gradientTransform="translate(-2367.58 -1325.78) rotate(1.07)" xlink:href="#linear-gradient-13"/><linearGradient id="linear-gradient-113" x1="5038.3" y1="3991.35" x2="5264.42" y2="4411.28" gradientTransform="translate(-2367.58 -1325.78) rotate(1.07)" xlink:href="#linear-gradient-70"/><linearGradient id="linear-gradient-114" x1="5253.66" y1="3981.42" x2="5408" y2="3981.42" gradientTransform="translate(-2367.58 -1325.78) rotate(1.07)" xlink:href="#linear-gradient-13"/><linearGradient id="linear-gradient-115" x1="3999.61" y1="2898.47" x2="4018.99" y2="3247.25" gradientTransform="matrix(-1, 0, 0, 1, 5033.14, 0)" xlink:href="#linear-gradient-70"/><linearGradient id="linear-gradient-116" x1="4019.93" y1="3010.32" x2="4048.94" y2="3010.32" gradientTransform="matrix(-1, 0, 0, 1, 5033.14, 0)" xlink:href="#linear-gradient-32"/><linearGradient id="linear-gradient-117" x1="4350.31" y1="2879" x2="4369.68" y2="3227.76" gradientTransform="matrix(-1, 0, 0, 1, 5033.14, 0)" xlink:href="#linear-gradient-70"/><linearGradient id="linear-gradient-118" x1="4314.54" y1="2992.43" x2="4372.24" y2="2992.43" gradientTransform="matrix(-1, 0, 0, 1, 5033.14, 0)" xlink:href="#linear-gradient-32"/><linearGradient id="linear-gradient-119" x1="3886.7" y1="2764.3" x2="4082.26" y2="2501.83" gradientTransform="matrix(-1, 0, 0, 1, 5033.14, 0)" xlink:href="#linear-gradient-70"/><linearGradient id="linear-gradient-120" x1="3591.39" y1="1514.01" x2="3522.09" y2="2124.74" gradientTransform="matrix(-1, 0, 0, 1, 5033.14, 0)" xlink:href="#linear-gradient-32"/><linearGradient id="linear-gradient-121" x1="4031.98" y1="2796.87" x2="4490.01" y2="2369.72" gradientTransform="matrix(-1, 0, 0, 1, 5033.14, 0)" xlink:href="#linear-gradient-70"/><linearGradient id="linear-gradient-122" x1="3579.23" y1="1828.07" x2="3946.61" y2="1828.07" gradientTransform="matrix(-1, 0, 0, 1, 5033.14, 0)" xlink:href="#linear-gradient-3"/><linearGradient id="linear-gradient-123" x1="4276.12" y1="1615.94" x2="4284.72" y2="1893.37" gradientTransform="matrix(-1, 0, 0, 1, 5033.14, 0)" xlink:href="#linear-gradient-70"/><linearGradient id="linear-gradient-124" x1="3911.65" y1="2782.88" x2="4107.21" y2="2520.42" gradientTransform="matrix(-1, 0, 0, 1, 5033.14, 0)" xlink:href="#linear-gradient-70"/><linearGradient id="linear-gradient-125" x1="3579.23" y1="1873.26" x2="3946.61" y2="1873.26" gradientTransform="matrix(-1, 0, 0, 1, 5033.14, 0)" xlink:href="#linear-gradient-13"/><linearGradient id="linear-gradient-126" x1="3831.69" y1="2051.5" x2="4565.71" y2="2051.5" gradientTransform="matrix(-1, 0, 0, 1, 5033.14, 0)" xlink:href="#linear-gradient-3"/><linearGradient id="linear-gradient-127" x1="4205.6" y1="1625.13" x2="4317.55" y2="2309.74" gradientTransform="matrix(-1, 0, 0, 1, 5033.14, 0)" xlink:href="#linear-gradient-13"/><linearGradient id="linear-gradient-128" x1="4034.52" y1="1564.28" x2="3965.23" y2="2175.02" gradientTransform="matrix(-1, 0, 0, 1, 5033.14, 0)" xlink:href="#linear-gradient-32"/><linearGradient id="linear-gradient-129" x1="3450.95" y1="2131.17" x2="3381.66" y2="2741.88" gradientTransform="matrix(-0.92, -0.39, -0.39, 0.92, 5021.74, 947.96)" xlink:href="#linear-gradient-32"/><linearGradient id="linear-gradient-130" x1="4082.83" y1="1569.76" x2="4013.54" y2="2180.5" gradientTransform="matrix(-1, 0, 0, 1, 5033.14, 0)" xlink:href="#linear-gradient-32"/><linearGradient id="linear-gradient-131" x1="4115.48" y1="1813.74" x2="4408.26" y2="1813.74" gradientTransform="matrix(-1, 0.01, 0.01, 1, 5055.83, 2.65)" xlink:href="#linear-gradient-3"/></defs><title>Wavy_Ppl-05_Single-09 [Converted]</title><g class="cls-1"><g id="Background"><rect class="cls-2" width="3710" height="3710"/></g><g id="Illustration"><path class="cls-3" d="M3208.45,1645.86c-76.28-499.29-389-1112.71-1006.91-1176.91,0,0-469.12-57.06-931.58,29.42C995.5,549.7,754.83,702.49,602.55,922.09S399.4,1409.45,461.13,1664.74c40.1,165.81,67.19,337.42,59.76,507.8-12.94,296.53-5.5,573.31,282.28,750.16,256.95,157.9,580.32,297.16,888.83,321.55,209.65,16.58,444.77-10.25,646.84-64.83C3368.64,2901.24,3284.73,2145.16,3208.45,1645.86Z"/><path class="cls-4" d="M2265.71,2442c34.29,11.66,75.86,19.73,118.62,23.66a659.88,659.88,0,0,0,69.22,2.75c30.64-.37,60.17-3,86.24-8.15,133.88-26.25,636.25-148.39,427.52-365.14-19.88-20.62-65.45-41-68.91-72.79-6-55.82,97.7-113.53,134.62-137.73,331.61-217.56-188.06-426-55.79-598.3s170.64-366.32-6-606.6c-98.33-133.75-271.78-130.49-377-73.38-83.79,45.49-124.23,125.13-48.89,196.9C2715.33,965.07,2645.53,1133,2576,1342.47s-580.59,382.63-542.62,793.34C2045.72,2269.76,2139.27,2398.91,2265.71,2442Z"/><path class="cls-5" d="M2265.71,2442c34.29,11.66,75.86,19.73,118.62,23.66-111.34-147.07-82.73-255.78,183.46-414.4,293.3-174.78,239.51-320.36,158.79-529.64s161-228.09,157.18-571.42c-2.57-231.78-176.62-314.58-289.48-343.88-83.79,45.49-124.23,125.13-48.89,196.9C2715.33,965.07,2645.53,1133,2576,1342.47s-580.59,382.63-542.62,793.34C2045.72,2269.76,2139.27,2398.91,2265.71,2442Z"/><path class="cls-6" d="M1813.55,2271.4c80.15,65.66,175.43,79.34,271.62,71,10.36-.9,20.68-2,31-3.41,44.84-5.95,89.58-16,132.73-27.08,119.44-30.67,260.3-82.18,266.19-230.22,2.83-71-64.58-96.22-67.79-158.36-4-76.61,119.39-123.58,174.08-149.8,86.15-41.25,157.63-69.47,158.1-182.45.35-80.64-51.79-133.85-87-200.77-48.46-92.17,0-163.69,39.62-246.18,50.45-104.94-16.06-232.52-100.34-297.67a393,393,0,0,0-33.83-23.31c-70-43.27-174.86-81-240.17-29.34-128.13,101.45,12.33,266.51,30.89,378.53,17.36,104.75-64.73,169.41-144.15,221.17-199.45,130.08-461,217.91-526.39,474.31C1682.53,2007.15,1696,2175.09,1813.55,2271.4Z"/><path class="cls-7" d="M1813.55,2271.4c80.15,65.66,175.43,79.34,271.62,71-52.84-56.49-201.26-247.08-25.94-452.92,62.8-73.7,148.95-113.75,241.78-135.62,55.8-13.13,123.44-32.74,152.61-87,33.26-61.95,6.77-136.93-3.19-201.51-11-71.66-12.52-144.78,28.63-207.9,73.27-112.49,177.4-302,118.88-434.27-70-43.27-174.86-81-240.17-29.34-128.13,101.45,12.33,266.51,30.89,378.53,17.36,104.75-64.73,169.41-144.15,221.17-199.45,130.08-461,217.91-526.39,474.31C1682.53,2007.15,1696,2175.09,1813.55,2271.4Z"/><polygon class="cls-8" points="2984.01 1467.82 2986.59 2321.23 1263.36 2357.35 925.82 1104.52 2586.97 1193.54 2580.51 1229.71 2984.01 1467.82"/><path class="cls-9" d="M2984,1467.81l-1689.81-68.14L925.83,1104.53,1405,1125.22l1178.79,50.89,315.94,230.27s0,0,0,0Z"/><polygon class="cls-10" points="3010.71 1539.15 1261.39 1449.46 1261.39 1377.62 3010.42 1468.54 3010.71 1539.15"/><polygon class="cls-11" points="925.82 1104.52 626.86 1465.54 621.65 2260.79 1263.36 2357.55 1263.32 1377.62 925.82 1104.52"/><polygon class="cls-12" points="1261.39 1458.56 922.91 1162.05 620.7 1518.34 621.28 1466.51 924.16 1104.66 1261.39 1377.62 1261.39 1458.56"/><path class="cls-2" d="M1158.78,1532.1v607.12l-465.93-53.94V1546.49Zm-29.18,544.66V1572.22l-125.06,2.67v489.19l125.06,12.68Zm-157.17-15.93V1575.58l-115.79,2.47v471l115.79,11.74Zm-145.58-14.76V1578.69L719.3,1581v454.18l107.55,10.91Z"/><path class="cls-2" d="M1169.92,2151.72,681.71,2095.2V1535.7l488.21-15.09ZM704,2075.36l443.67,51.36V1543.58L704,1557.29Zm436.76,13.73-147.33-14.94V1564l147.33-3.14ZM1015.68,2054l102.79,10.42V1583.6l-102.79,2.19Zm-32.11,19.13-138.07-14v-492l138.07-3ZM867.77,2039l93.53,9.49V1587l-93.53,2ZM838,2058.39l-129.81-13.16V1570.09L838,1567.31ZM730.44,2025.1l85.27,8.65V1590.06l-85.27,1.83Z"/><polygon class="cls-13" points="1127.09 1576.12 1127.09 2072.67 1006.93 2060.6 1006.93 1578.57 1127.09 1576.12"/><polygon class="cls-14" points="824.68 1582.29 824.68 2042.29 721.35 2031.91 721.35 1584.4 824.68 1582.29"/><polygon class="cls-15" points="970.11 1579.32 970.11 2056.9 858.83 2045.72 858.83 1581.6 970.11 1579.32"/><polygon class="cls-16" points="2765.66 1717.47 2765.66 2327.06 1520.15 2351.99 1520.15 1682.68 2765.66 1717.47"/><path class="cls-17" d="M2738.87,2327.55,1520.15,2352v-95.74l43.74-462.35s211.38-77.3,391.62,76.85c175.55,150.14,91.48,286.84,442.51,309.1C2666,2196.83,2719.13,2237.63,2738.87,2327.55Z"/><polygon class="cls-18" points="1582.25 2350.8 1520.15 2351.99 1520.15 1682.68 1582.25 1684.31 1582.25 2350.8"/><polygon class="cls-18" points="2765.66 2327.06 2713.9 2328.09 2713.9 1716.12 2765.66 1717.47 2765.66 2327.06"/><polygon class="cls-2" points="1530.5 1647.43 1475.3 1645.64 1475.3 1549.19 1530.5 1551.39 1530.5 1647.43"/><polygon class="cls-18" points="2796.71 1686.04 1530.5 1647.43 1530.5 1551.39 2796.71 1598.71 2796.71 1686.04"/><polygon class="cls-2" points="2776.01 1840.94 1499.45 1817.62 1499.45 1646.48 2776.01 1685.45 2776.01 1840.94"/><polygon class="cls-19" points="2776.01 1734.04 1499.45 1699.96 1499.45 1682.14 2776.01 1717.84 2776.01 1734.04"/><polygon class="cls-19" points="2776.01 1776.15 1499.45 1746.32 1499.45 1728.49 2776.01 1759.96 2776.01 1776.15"/><polygon class="cls-19" points="2776.01 1818.27 1499.45 1792.66 1499.45 1774.84 2776.01 1802.07 2776.01 1818.27"/><path class="cls-20" d="M2899.68,1406.38c-75.56-33.86-162.65-47.31-242-58.85-106-15.4-213.3-13.23-319.63-2-98.8,10.4-197.68,33.22-297.55,25.8-108.28-8-206.34-50-296-109.67-95.86-63.77-180.65-106.47-295.43-127.83-14.23-2.63-29-5.61-44.08-8.63l1178.79,50.89Z"/><path class="cls-21" d="M2522,1928.8l277-12.52,40.34-98.51,179.66,91v.16h.06l.19-.17c12.75,4.65,21.91,17.35,21.91,32.63v842.1c0,15.76-9.74,28.06-23.11,31.24l-177.1,117.78-38.55-144.84-232-31.33s0,0,0-.08l-48.43-6.5c-15.23-2.05-26.26-18.34-26.26-36.08V1962.18C2495.73,1944.43,2506.76,1929.48,2522,1928.8Z"/><path class="cls-22" d="M2149.73,1883.5v925.28c0,21.85,14.4,41.9,34.47,44.43l638.37,80.5c24.74,3.12,46.42-14.49,46.42-39V1857.92c0-18.82-12.93-34.43-29.73-40.15a48.6,48.6,0,0,0-17.07-2.3l-637.94,26.93C2164.18,1843.24,2149.73,1861.65,2149.73,1883.5Z"/><path class="cls-23" d="M2160,1883.79c0-14.6,10.7-26.86,24.1-27.4L2822.47,1831a28,28,0,0,1,29.48,28.3V2894.42c0,16.29-13,27.84-29.52,25.8L2183.88,2841c-13.4-1.67-23.92-14.86-23.92-29.45Z"/><path class="cls-24" d="M2350.85,2780.43c0,9.07,6.67,17.19,15.24,18.16l244.09,27.89c9.29,1.06,15.08-5.79,15.08-15.27v-22.13c0-9.48-5.92-17.94-15.21-18.91l-244.77-25.74c-8.57-.89-14.43,5.76-14.43,14.83Z"/><path class="cls-25" d="M2247.85,2861.31l575.78,72.57c24.75,3.12,45.36-14.66,45.36-39.14V1857.92a42.48,42.48,0,0,0-29.06-40.18c-4.56,3.88-9.21,8-13.68,12.42-40.38,39.75-76.17,101.47-81.06,197.46-11.65,229-85.5,248.7-161.31,292.82a233.57,233.57,0,0,0-48,36.78,220,220,0,0,0-35.7,46.88,230.9,230.9,0,0,0-18.55,41.85,250.85,250.85,0,0,0-8.21,31.61c-7.52,39-6.64,81.76,2.84,126.26q3.42,16.07,8.36,32.45,5.21,17.27,12.11,34.82,2,4.9,3.28,9.55c6.74,23.16,2.72,41.27-8.47,56-42.17,55.35-182.81,61.13-233.82,112.27A53.71,53.71,0,0,0,2247.85,2861.31Z"/><path class="cls-26" d="M2348.15,2074.81c0,79.71,61.44,145.56,138.94,147.11,79.44,1.59,145.33-64.69,145.33-148.07s-65.89-149.23-145.33-147.1C2409.59,1928.83,2348.15,1995.09,2348.15,2074.81Z"/><path class="cls-27" d="M2387,2074.68c0,57.41,44.41,104.55,100.07,105.29,56.66.76,103.34-46.69,103.34-106s-46.68-106.43-103.34-105.29C2431.43,1969.82,2387,2017.26,2387,2074.68Z"/><path class="cls-28" d="M2418.52,2074.57c0,39.34,30.51,71.47,68.57,71.78,38.51.31,70.08-32,70.08-72.25s-31.57-72.34-70.08-71.77C2449,2002.89,2418.52,2035.23,2418.52,2074.57Z"/><path class="cls-29" d="M2441.32,2074.49c0,26.26,20.41,47.64,45.77,47.75,25.56.1,46.44-21.41,46.44-48.06s-20.88-48-46.44-47.74C2461.73,2026.72,2441.32,2048.23,2441.32,2074.49Z"/><path class="cls-30" d="M2568.07,1977.91a8.67,8.67,0,0,0,0,12,8.17,8.17,0,0,0,11.74-.19,8.65,8.65,0,0,0,0-12A8.16,8.16,0,0,0,2568.07,1977.91Z"/><path class="cls-31" d="M2397,2156.52a8.6,8.6,0,0,0,0,11.7,7.58,7.58,0,0,0,11.12.13,8.59,8.59,0,0,0,0-11.72A7.59,7.59,0,0,0,2397,2156.52Z"/><path class="cls-32" d="M2397,1992.76a7.59,7.59,0,0,0,11.12-.18,8.59,8.59,0,0,0,0-11.72,7.59,7.59,0,0,0-11.12.2A8.6,8.6,0,0,0,2397,1992.76Z"/><path class="cls-33" d="M2568.07,2170.21a8.16,8.16,0,0,0,11.74.14,8.65,8.65,0,0,0,0-12,8.16,8.16,0,0,0-11.74-.11A8.65,8.65,0,0,0,2568.07,2170.21Z"/><path class="cls-34" d="M2288.86,2489.17c0,113.92,87.33,214.84,198.56,225.76,115.3,11.31,211.91-77.77,211.91-199.34S2602.72,2292.5,2487.42,2289C2376.19,2285.57,2288.86,2375.25,2288.86,2489.17Z"/><path class="cls-35" d="M2344,2492.72c0,82.27,63.39,154.58,143.4,161.67,82.1,7.26,150.24-56.58,150.24-142.77s-68.14-158.81-150.24-162.11C2407.41,2346.3,2344,2410.44,2344,2492.72Z"/><path class="cls-28" d="M2389,2495.61c0,56.5,43.71,105.83,98.47,110.26,55.74,4.5,101.65-39.06,101.65-97.38S2543.16,2400.7,2487.42,2398C2432.66,2395.41,2389,2439.11,2389,2495.61Z"/><path class="cls-36" d="M2421.58,2497.71c0,37.78,29.31,70.61,65.84,73.36,37,2.78,67.25-26.21,67.25-64.79s-30.28-71.48-67.25-73.45C2450.89,2430.88,2421.58,2459.94,2421.58,2497.71Z"/><path class="cls-37" d="M2605,2370c-4.72,4.61-4.72,12.41,0,17.44a12,12,0,0,0,17.15.78c4.75-4.62,4.75-12.45,0-17.49A12,12,0,0,0,2605,2370Z"/><path class="cls-38" d="M2358.25,2611.05c-4.37,4.27-4.37,11.77,0,16.78s11.47,5.62,15.85,1.36,4.4-11.8,0-16.82S2362.62,2606.78,2358.25,2611.05Z"/><path class="cls-39" d="M2358.25,2376.22c4.37,4.83,11.47,5.16,15.85.72s4.4-12,0-16.82-11.48-5.12-15.85-.68S2353.88,2371.39,2358.25,2376.22Z"/><path class="cls-40" d="M2605,2649.06c4.72,5.23,12.4,5.89,17.15,1.48s4.75-12.26,0-17.49-12.43-5.86-17.15-1.43S2600.25,2643.84,2605,2649.06Z"/><path class="cls-41" d="M3103.62,2054.92l-187.81-136.25-148.94,178.55a29.52,29.52,0,0,0-6.36,21.88l55.4,441.08c1.89,15.05,16.28,25.6,31.33,23.71l300.14-37.7c15-1.89,24-15.38,22.1-30.42l-55.41-441.08C3113.12,2067.11,3109.81,2059.37,3103.62,2054.92Zm-177.77-58.72a31,31,0,1,1-26.91,34.65A31,31,0,0,1,2925.85,1996.2Z"/><path class="cls-2" d="M2992,2267.9q-11.55-1.74-20.91-3.53c-27-5.21-40.53-11.19-41.66-20.23-.61-4.85.88-10.12,7-14.46,5.1-3.62,13.35-6.6,26.28-8.23,38.69-4.86,65.54,4,79,7.23l7.63-63.72c-18.23-4.94-40.71-8.89-77.2-5.66l-4.8-38.2-53.28,6.69,5.19,41.31c-18.92,6-37.19,15.43-49.72,26.85,0,0,0,.06,0,.08-20.17,18.47-29,42.65-25.67,69.24,6.09,48.47,50,66.88,103.59,72.81,38,4.26,52.81,10.08,54.48,23.4,1.84,14.68-15.26,22.26-38.83,25.22-34.67,4.35-68.11-3.2-91.67-11.07l-8.32,66.08c20.39,7.82,57.62,13.07,91.75,10.59l5.17,41.16,53.27-6.69-5.67-45.16c21.41-5.84,35.47-13.75,47.87-23.74.07-.06.44-.16.51-.22,24.56-19.77,35.26-46.6,31.74-74.63C3082.24,2299,3056,2277,2992,2267.9Z"/><path class="cls-42" d="M3166.07,2488.65l3.41,27.12c1.89,15-7.08,28.53-22.1,30.42l-300.14,37.7c-15,1.89-29.44-8.66-31.33-23.71l-55.4-441.08a28.46,28.46,0,0,1,.6-9.78c5.09,19.25,13.39,37.39,27.84,50.69,22.11,20.31,53.11,26.35,80.89,36,1.86.67,3.7,1.31,5.54,2,21.55,8.08,42.55,18.12,61.06,31.68a164.8,164.8,0,0,1,23.33,20.59,123.41,123.41,0,0,1,11.35,14.1c22.38,32.16,27.2,69.78,43.69,105.83,9.07,19.85,24.1,34.74,41.11,47.47,12.07,9.11,24.56,17.2,37.19,25.14C3116,2457.2,3144.15,2470.8,3166.07,2488.65Z"/><path class="cls-43" d="M2926.83,1839.63c-14.56-17.94-39.33-31.4-62.85-24a34.75,34.75,0,0,0-12.94,7.75c4.33,3.91,12.53,7.42,18.11,9.58,1.12.43,5.35-1.41,6.73-1.58a31.91,31.91,0,0,1,7.69,0,32.78,32.78,0,0,1,11.74,3.68c6.9,3.7,14.11,12.35,19.12,18.32a51.46,51.46,0,0,1,10.16,18.12c3.9,12.86,3.8,27.39,4.21,40.71.81,26.3-4.27,52-10.09,77.55-1.26,5.5-2.7,10.93-4.38,16.31a8.92,8.92,0,0,0,5.67,11l.37.13a8.91,8.91,0,0,0,11.26-5.65C2933.16,2006.64,2968.56,1891.06,2926.83,1839.63Z"/><path class="cls-2" d="M966.35,775.08s53.29-103.24,144.64-63.21,82.89,19,146.33,27,142,52,90.86,60.85-451.19,19-451.19,19S902.91,780.49,966.35,775.08Z"/><path class="cls-2" d="M1608.62,900s68-131.69,184.48-80.62,105.73,24.26,186.65,34.42,181.05,66.32,115.87,77.62-575.47,24.25-575.47,24.25S1527.7,906.93,1608.62,900Z"/><path class="cls-44" d="M1067.14,1262.93c0,105.62-82.59,188.7-188.14,185.46-109.86-3.37-202.25-98.25-202.25-211.78S769.14,1040.66,879,1052.1C984.55,1063.09,1067.14,1157.31,1067.14,1262.93Z"/><path class="cls-45" d="M1095.66,1253.82c0,105.62-82.58,188.7-188.14,185.46-109.85-3.37-202.24-98.24-202.24-211.78s92.39-196,202.24-184.51C1013.08,1054,1095.66,1148.2,1095.66,1253.82Z"/><path class="cls-46" d="M1087.38,1253.26c0,101-79,180.26-179.86,177-104.75-3.4-192.7-93.94-192.7-202.12s87.95-186.86,192.7-176.12C1008.36,1062.35,1087.38,1152.29,1087.38,1253.26Z"/><path class="cls-47" d="M1081.44,1252.86c0,97.64-76.46,174.22-173.92,171-101.12-3.4-185.91-90.84-185.91-195.21s84.79-180.38,185.91-170.14C1005,1068.33,1081.44,1155.22,1081.44,1252.86Z"/><path class="cls-48" d="M906.52,1091.68h0a10.63,10.63,0,0,1,9.39,10.43v18a265.51,265.51,0,0,1,31.15,5.41q11.51,2.7,22.85,6.43a10.52,10.52,0,0,1,7.16,10.79l-2.21,22.54a8.44,8.44,0,0,1-12.06,7,131.09,131.09,0,0,0-15.33-5.71,139.57,139.57,0,0,0-28.91-5.4l-2.65-.22v51.49q40.58,11.34,59.76,30.56t19.15,47.7q0,30.94-21.18,49.6t-59.89,21.08v19.85a9,9,0,0,1-9.39,9.16h-.17a10,10,0,0,1-9.42-9.95v-19.58l-4.19-.18a276.08,276.08,0,0,1-34.69-3.7,225.34,225.34,0,0,1-24-5.52,10.31,10.31,0,0,1-7.52-10.68l2.59-29c.56-6.26,6.86-9.91,12.81-7.56a187.52,187.52,0,0,0,21.09,6.92,185,185,0,0,0,33.72,5.64l.17-57.27c-26-6.43-45.42-15.94-58.19-28.55s-19.28-28.88-19.28-48.59q0-30.6,20.9-47.19c13.84-11,33.52-16.46,58.9-16.45v-18.38A8.49,8.49,0,0,1,906.52,1091.68Zm-9.42,68.72q-12,.87-18.76,6.62t-6.73,15.45a20.74,20.74,0,0,0,6.22,15.36q6.23,6.15,19.27,9.83Zm16.65,103.7v52.52q13.08,0,20.08-6.25t7-17.68q0-10.41-6.5-17.28T913.75,1264.1Z"/><path class="cls-49" d="M876,1276.77c5.88-58,59.22-82.61,52.26-136-4.29-32.91-29.23-60.64-57-82.29-84.39,8.85-149.64,78.72-149.64,170.11,0,104.37,84.79,191.81,185.91,195.21a175.71,175.71,0,0,0,28.73-1.4C896.09,1382.45,871,1326.63,876,1276.77Z"/><path class="cls-50" d="M1459,831.06c0,138.35-108.18,247.18-246.45,242.94-143.89-4.42-264.91-128.69-264.91-277.41s121-256.67,264.91-241.69C1350.77,569.3,1459,692.72,1459,831.06Z"/><path class="cls-51" d="M1496.31,819.14c0,138.34-108.18,247.17-246.45,242.93C1106,1057.65,985,933.38,985,784.66S1106,528,1249.86,543C1388.13,557.37,1496.31,680.79,1496.31,819.14Z"/><path class="cls-52" d="M1485.46,818.4c0,132.26-103.51,236.12-235.6,231.85-137.21-4.45-252.41-123-252.41-264.75s115.2-244.76,252.41-230.7C1382,568.33,1485.46,686.15,1485.46,818.4Z"/><path class="cls-53" d="M1477.68,817.88c0,127.89-100.15,228.21-227.82,223.92-132.44-4.45-243.51-119-243.51-255.7s111.07-236.27,243.51-222.86C1377.53,576.17,1477.68,690,1477.68,817.88Z"/><path class="cls-54" d="M1248.56,606.75h0a13.93,13.93,0,0,1,12.29,13.66V644a347.21,347.21,0,0,1,40.81,7.08q15.06,3.54,29.93,8.43A13.76,13.76,0,0,1,1341,673.6l-2.89,29.52a11.07,11.07,0,0,1-15.81,9.19,169.63,169.63,0,0,0-20.07-7.48,182.6,182.6,0,0,0-37.88-7.08l-3.47-.28V764.9c35.44,9.92,61.46,23.25,78.28,40s25.08,37.51,25.08,62.49q0,40.51-27.73,65Q1308.56,957,1258,960v26a11.82,11.82,0,0,1-12.3,12h-.22a13.06,13.06,0,0,1-12.34-13V959.32l-5.48-.24a360.69,360.69,0,0,1-45.45-4.85,295.06,295.06,0,0,1-31.41-7.22,13.53,13.53,0,0,1-9.85-14l3.4-38c.74-8.21,9-13,16.78-9.9a249,249,0,0,0,27.63,9.06,241.88,241.88,0,0,0,44.16,7.38l.22-75c-34-8.42-59.49-20.89-76.22-37.4s-25.25-37.83-25.25-63.64q0-40.08,27.37-61.82c18.13-14.4,43.91-21.56,77.16-21.54V618.11A11.12,11.12,0,0,1,1248.56,606.75Zm-12.34,90q-15.77,1.14-24.58,8.66t-8.82,20.25a27.15,27.15,0,0,0,8.16,20.11q8.14,8.07,25.24,12.88ZM1258,832.6v68.79q17.14,0,26.31-8.18t9.16-23.16q0-13.63-8.51-22.64T1258,832.6Z"/><path class="cls-55" d="M1208.64,849.2c7.69-76,77.56-108.21,68.44-178.14-5.62-43.1-38.28-79.42-74.72-107.78-110.54,11.59-196,103.12-196,222.82,0,136.71,111.07,251.25,243.51,255.7a230.11,230.11,0,0,0,37.63-1.84C1234.9,987.62,1202,914.51,1208.64,849.2Z"/><path class="cls-16" d="M1418.08,2711.3c-100.47-15.92-178.72-132.21-178.72-260.36s78.25-228,178.72-222.75c105.14,5.47,194,122.86,194,262S1523.22,2728,1418.08,2711.3Z"/><path class="cls-56" d="M1445.25,2607.05c1.23-108,41.17-164.48,20.34-259.72-10.33-47.23-32-86.67-58.44-119.26-95.14,2.24-167.79,99.31-167.79,222.87,0,128.15,78.25,244.44,178.72,260.36a143.91,143.91,0,0,0,38,1A481.16,481.16,0,0,1,1445.25,2607.05Z"/><path class="cls-16" d="M1418.08,2200.92c-111.54-5.13-198,106-198,248s86.48,271.32,198,289.66c117.31,19.3,217-90.42,217-246S1535.39,2206.31,1418.08,2200.92Zm0,510.38c-100.47-15.92-178.72-132.21-178.72-260.36s78.25-228,178.72-222.75c105.14,5.47,194,122.86,194,262S1523.22,2728,1418.08,2711.3Z"/><path class="cls-18" d="M1418.08,2223c-102.59-5.21-182.41,96.76-182.41,227.56s79.82,249.57,182.41,265.95c107.45,17.15,198.37-83.64,198.37-225.88S1525.53,2228.46,1418.08,2223Zm0,468.47c-92.39-14.23-164.57-121-164.57-239s72.18-209.61,164.57-204.4c96.32,5.43,177.46,113.15,177.46,240.39S1514.4,2706.31,1418.08,2691.46Z"/><path class="cls-18" d="M1440.2,2475.34c0,15.49-9.71,27-21.62,25.63s-21.41-14.84-21.41-30.19,9.56-26.84,21.41-25.66S1440.2,2459.84,1440.2,2475.34Z"/><path class="cls-16" d="M2128.65,2823.91c-134-21.22-237.63-157.08-237.63-304.39s103.68-261.35,237.63-254.38c141.15,7.34,261.28,144.9,261.28,306.88S2269.8,2846.29,2128.65,2823.91Z"/><path class="cls-56" d="M2165,2704c1.64-125,55.25-189.68,27.27-300.39-13.86-54.84-42.88-100.75-78.28-138.71-126.75,1.69-223,112.58-223,254.62,0,147.31,103.68,283.17,237.63,304.39a223,223,0,0,0,50.82,2.28C2168.11,2779.38,2164.57,2738.75,2165,2704Z"/><path class="cls-16" d="M2128.65,2233.59c-148.65-6.83-263.11,120.13-263.11,283.25S1980,2831,2128.65,2855.46c157.57,25.92,292.43-98.87,292.43-280.16S2286.22,2240.84,2128.65,2233.59Zm0,590.32c-134-21.22-237.63-157.08-237.63-304.39s103.68-261.35,237.63-254.38c141.15,7.34,261.28,144.9,261.28,306.88S2269.8,2846.29,2128.65,2823.91Z"/><path class="cls-18" d="M2128.65,2259.13c-136.76-7-242.5,109.54-242.5,259.87s105.74,289.09,242.5,310.92c144.27,23,267.19-91.63,267.19-257.28S2272.92,2266.46,2128.65,2259.13Zm0,541.84c-123.21-19-218.93-143.76-218.93-279.48s95.72-240.35,218.93-233.41c129.28,7.29,238.85,133.51,238.85,281.58S2257.93,2820.89,2128.65,2801Z"/><path class="cls-18" d="M2158.25,2551.42c0,17.93-13,31-28.93,29.23s-28.62-17.59-28.62-35.33,12.77-30.85,28.62-29.27S2158.25,2533.48,2158.25,2551.42Z"/><path class="cls-57" d="M1697.69,2571.59h-.06c-7.2-.92-7.2-.92-23-61.54-7.87-30.2-19-73.53-33-128.62-25.66-100.84-56.5-223.32-77.67-307.58-1.42-5.67,1.06-11.66,5.55-13.39s9.33,1.47,10.76,7.15c63.34,251.15,106.35,419.56,120.53,471.93,22-28.79,87.56-111.6,292-365.69,3.76-4.68,10.2-4.83,14.39-.35a13,13,0,0,1,.74,16.6c-121.33,150-293.73,363.92-302.47,377.07A7.74,7.74,0,0,1,1697.69,2571.59Zm8.6-6.52Zm0,0v0Z"/><path class="cls-58" d="M2128.64,2552.79c-5.14-.55-9.47-5.1-10.46-10.72-3.73-13.72-62.15-176.75-154-429.85-2.16-6,.22-12.75,5.34-15.15s11,.48,13.23,6.46c156.34,429,156.51,434.4,156.62,437.95.2,6.66-4.44,11.74-10.36,11.34Zm-10.38-10.41Zm-.29-2.29h0Zm0,0v0Z"/><path class="cls-59" d="M1985.44,2152.56,1586.85,2140c-4.75-.15-8.59-5.08-8.59-11s3.84-10.66,8.59-10.53l398.59,10.69c5.6.15,10.15,5.52,10.15,12S1991,2152.73,1985.44,2152.56Z"/><path class="cls-60" d="M1697.74,2571.56a7.59,7.59,0,0,1-1.59-.36l-281.46-94.83c-2.72-.92-5-3.57-6-7a12.68,12.68,0,0,1,1-9.9l179.76-299.14c2.82-4.69,8.23-5.54,12.08-1.86s4.68,10.48,1.84,15.18L1430.2,2460.43l269.1,89.42c4.91,1.63,8.2,7.75,7.32,13.65C1705.84,2568.77,1702,2572.08,1697.74,2571.56Z"/><path class="cls-61" d="M1690.11,2641.4l-2.62-1.32L1416.08,2502.4v-59.66l285.81,53.62Zm-270-142.41,266.09,134.67L1697,2501l-276.86-52.26Z"/><path class="cls-62" d="M1760.54,2577c0,41.27-27.56,71-61.12,66.46-33.11-4.47-59.61-40.68-59.61-80.93s26.5-70.11,59.61-66.64C1733,2499.41,1760.54,2535.75,1760.54,2577Z"/><path class="cls-63" d="M1735.79,2574.05c0,24.56-16.35,42.36-36.37,39.78-19.86-2.56-35.84-24.24-35.84-48.43s16-42,35.84-39.84C1719.44,2527.77,1735.79,2549.49,1735.79,2574.05Z"/><path class="cls-64" d="M1441.54,2475.48c0,16.82-10.53,29.27-23.46,27.82s-23.22-16.12-23.22-32.77,10.37-29.12,23.22-27.84S1441.54,2458.66,1441.54,2475.48Z"/><path class="cls-65" d="M1651.79,2080.57,1507,2077.89c-6.28-.12-11.38-6.72-11.38-14.7v-19.83a16.36,16.36,0,0,1,3.79-10.76,9.87,9.87,0,0,1,8.85-3.54l144.92,21.65c6.17.92,10.83,7.4,10.83,15.06C1664,2074.05,1658.49,2080.69,1651.79,2080.57Z"/><path class="cls-66" d="M1863.34,2130.81a179.16,179.16,0,0,1-74-16L1756.63,2100a9.45,9.45,0,1,1,7.83-17.2l32.67,14.87a160.31,160.31,0,0,0,99.16,10.81L2081,2069.08a2,2,0,0,0,.36-3.78L2042,2048.47a9.45,9.45,0,0,1,7.42-17.38l39.38,16.82a20.9,20.9,0,0,1-3.85,39.66l-184.71,39.37A176.75,176.75,0,0,1,1863.34,2130.81Z"/><path class="cls-67" d="M1604.44,2980.83l-283.88-87.33c-27.65-8.5-49-36.53-49-62.9v-.29c0-26.37,21.37-43.45,49-37.8L1625.71,2851Z"/><path class="cls-68" d="M2117.54,2945.25l-499,30.12c-29.61,1.79-53.81-19.2-53.81-46.91v-18.79c0-27.7,24.2-51.17,53.81-52.41l499-20.88Z"/><path class="cls-69" d="M2122.11,2950.78l-499.58,30.65c-38.61,2.37-70.37-25.13-70.37-61.32v-.4c0-36.2,31.76-66.94,70.37-68.52l499.58-20.44a5.48,5.48,0,0,1,5.73,5.56,6.06,6.06,0,0,1-5.73,6l-499.58,21.43c-31.09,1.33-56.6,26.11-56.6,55.23v.39c0,29.12,25.51,51.28,56.6,49.44l499.58-29.67a5.37,5.37,0,0,1,5.73,5.46A6.21,6.21,0,0,1,2122.11,2950.78Z"/><path class="cls-70" d="M1616.75,2851l-296.19-58.51c-27.65-5.65-49-42.23-49-81.83v-.43c0-39.6,21.37-70.75,49-69.38l314.81,15.59Z"/><path class="cls-71" d="M2117.54,2822.22l-472.33,18.62c-44.19,1.74-80.46-30.55-80.46-72.14v-28.22c0-41.6,36.27-75.74,80.46-76.25l472.33-5.49Z"/><path class="cls-72" d="M2122.11,2830.75l-499.58,20.44c-38.61,1.58-70.37-41.34-70.37-95.68v-.6c0-54.35,31.76-98.89,70.37-99.28l499.58-5.11c3.17,0,5.73,3.84,5.73,8.65s-2.56,8.73-5.73,8.77l-499.58,6.59c-31.09.41-56.6,36.31-56.6,80v.59c0,43.72,25.51,78.31,56.6,77.13l499.58-19c3.17-.12,5.73,3.68,5.73,8.49S2125.28,2830.62,2122.11,2830.75Z"/><path class="cls-73" d="M1589.65,2648l-272-12.11c-21.23-1-37.76-18.23-37.76-38.63v-13.84c0-20.4,16.53-37.75,37.76-38.79l272-13.33Z"/><path class="cls-74" d="M1558.47,2656l-237.91-15.13c-27.65-1.37-49-23.88-49-50.25v-.29c0-26.37,21.37-49,49-50.45l237.16-14.79c4.55-.25,46.72,2.37,46.72,5.85s-35.44,6.8-40,7l-243.88,11.7c-22.41,1-39.9,19.2-39.9,40.67v.29c0,21.46,17.49,39.62,39.9,40.5l243.88,12.2c4.56.18,40,1.85,40,5.33S1563,2656.23,1558.47,2656Z"/><polygon class="cls-75" points="2117.54 2644.76 1564.75 2649.87 1564.75 2530.75 2117.54 2535.89 2117.54 2644.76"/><path class="cls-76" d="M2122.11,2542.1l-563.06-4.65a6.71,6.71,0,0,1-6.89-6.42,6.56,6.56,0,0,1,6.89-6.29l563.06,5.75a5.84,5.84,0,0,1,5.73,5.86A5.71,5.71,0,0,1,2122.11,2542.1Z"/><path class="cls-77" d="M2122.11,2650.52l-563.06,5.76a6.57,6.57,0,0,1-6.89-6.3,6.71,6.71,0,0,1,6.89-6.42l563.06-4.64a5.7,5.7,0,0,1,5.73,5.75A5.83,5.83,0,0,1,2122.11,2650.52Z"/><path class="cls-78" d="M1522.89,2807.05l-63.63-12.73c-14.73-39.84-13.63-76,0-119.08l63.63,5.46C1509.78,2726.33,1511.76,2767.92,1522.89,2807.05Z"/><path class="cls-79" d="M1395.63,2645.25l-1.82-66.36-63.17,62.72s-32.27,14.55-26.82,44.54l37.27-10.91,34.54,14.55S1376.52,2657.46,1395.63,2645.25Z"/><path class="cls-80" d="M1323.82,2580.71l70-1.82s-33.63,22.73-18.18,110.9c0,0-30-11.82-42.72-28.18l-29.09,24.54S1286.55,2610.71,1323.82,2580.71Z"/><path class="cls-81" d="M1723.86,2712.22c-12.35,9-3.89,38.28,3.4,68.1,12.67,51.83,33.33,159.47,26.52,239.36a14.43,14.43,0,0,0,14.67,15.63h.56a14.49,14.49,0,0,0,13.87-17.43c-6.32-31.45-24.8-77-15.61-115,15.44-63.67,59-83.52,51.08-124.29C1809.45,2732.76,1742.77,2698.37,1723.86,2712.22Z"/><path class="cls-82" d="M2141.21,2964.22c-1.82-16.87-41.79-14.06-91.9-37.48-43.44-20.31-48.82-39-84.45-76.94a442.4,442.4,0,0,0-54.66-50.46c-35.77-27.45-39.9-19.57-64.61-39.45-47.15-37.94-44.32-76.44-92.33-99.63-6.54-3.16-27.29-13.18-34-6.26-9.17,9.5,13.15,47.52,34.84,73.24,28.37,33.64,55.18,45.65,76.13,59.89,94.94,64.56,58.29,167.71,144.42,210.79,46.77,23.4,94.67,11.54,105.56,8.52C2106.61,2999.13,2143,2980.69,2141.21,2964.22Z"/><path class="cls-83" d="M1715.89,2647.19c-6,3-5.9,20.12-5.82,54.31.07,25.06.42,37.58,4.12,46.14,11.17,25.79,37.65,21.35,82,46.3,6.48,3.65,58.17,33.47,91.64,89.91a279.71,279.71,0,0,1,24.27,52.58c14.72,40.54,12.65,60.93,34.47,83.63,14.24,14.81,37.33,26.67,178.77,28.94,128.92,2.07,193.38,3.1,198.36-17,6.52-26.37-89.25-71.06-126-86s-55.26-22.44-76.61-18.72c-55,9.57-75,71.52-109.87,64.17-10-2.11-14.85-8.59-32.37-31.19-23.44-30.22-49.28-58.66-70.91-90.2-33.93-49.48-60.85-83.38-95.88-127.52C1734.63,2644.94,1720.65,2644.76,1715.89,2647.19Z"/><path class="cls-84" d="M1715.89,2647.19c-6,3-5.9,20.12-5.82,54.31.07,25.06.42,37.58,4.12,46.14,11.17,25.79,37.65,21.35,82,46.3,6.48,3.65,58.17,33.47,91.64,89.91a279.71,279.71,0,0,1,24.27,52.58c14.72,40.54,12.65,60.93,34.47,83.63,14.24,14.81,37.33,26.67,178.77,28.94,128.92,2.07,193.38,3.1,198.36-17,6.52-26.37-89.25-71.06-126-86s-55.26-22.44-76.61-18.72c-55,9.57-75,71.52-109.87,64.17-10-2.11-14.85-8.59-32.37-31.19-23.44-30.22-49.28-58.66-70.91-90.2-33.93-49.48-60.85-83.38-95.88-127.52C1734.63,2644.94,1720.65,2644.76,1715.89,2647.19Z"/><path class="cls-85" d="M1653.61,2749.11c-12.34,9-3.88,38.28,3.41,68.1,12.66,51.83,33.33,159.47,26.51,239.36a14.43,14.43,0,0,0,14.67,15.64h.56a14.5,14.5,0,0,0,13.87-17.44c-6.32-31.45-24.8-77-15.6-115,15.43-63.66,59-83.52,51.08-124.29C1739.2,2769.65,1672.52,2735.26,1653.61,2749.11Z"/><path class="cls-86" d="M2071,3001.11c-1.83-16.87-41.79-14.05-91.9-37.48-43.45-20.31-48.83-39-84.46-76.93a441.05,441.05,0,0,0-54.65-50.46c-35.77-27.45-39.9-19.58-64.61-39.46-47.16-37.94-44.32-76.44-92.33-99.63-6.54-3.16-27.29-13.18-34-6.26-9.16,9.5,13.16,47.52,34.84,73.24,28.37,33.65,55.19,45.65,76.13,59.89,94.94,64.57,58.29,167.72,144.43,210.8,46.76,23.39,94.67,11.53,105.56,8.51C2036.36,3036,2072.75,3017.59,2071,3001.11Z"/><path class="cls-87" d="M1645.65,2684.08c-6,3-5.91,20.13-5.82,54.32.06,25,.41,37.58,4.12,46.13,11.17,25.79,37.64,21.35,82,46.3,6.48,3.65,58.17,33.47,91.64,89.91a279.72,279.72,0,0,1,24.28,52.58c14.72,40.54,12.64,60.93,34.46,83.63,14.24,14.81,37.34,26.68,178.78,29,128.92,2.06,193.38,3.1,198.35-17,6.52-26.37-89.24-71.06-126-86s-55.26-22.45-76.62-18.73c-55,9.57-75,71.52-109.87,64.17-10-2.11-14.84-8.59-32.37-31.19-23.44-30.22-49.28-58.66-70.91-90.2-33.93-49.48-60.84-83.38-95.87-127.52C1664.38,2681.84,1650.4,2681.65,1645.65,2684.08Z"/><path class="cls-88" d="M2632.43,2834c0,15.24-.64,30.1-5.31,44.61-.41,1.38-.89,2.76-1.4,4.14v0c-20.78,84.71-95.46,151-184.6,156.49a184.55,184.55,0,0,1-35.23-1.15c-.09,0-.21,0-.3,0a176.47,176.47,0,0,1-130-85.46l-.12-.2c-16.14-27.35-25.29-60.12-25.31-95.17,0-56,23.58-107.63,61.23-146h0c7.46-6.48,15.49-14.46,24-20.7,2.41-1.8,4.88-2.13,7.38-5.29h0c6.24-3.39,12.73-7.55,19.45-11.06a197.12,197.12,0,0,1,79.31-22,183.72,183.72,0,0,1,63.14,7,175.89,175.89,0,0,1,78.86,48.14l.36,0v0c0,2.13,3.45,4.11,5.3,6.22s3.44,4.27,5.14,6.47C2618.51,2750.92,2632.41,2790.3,2632.43,2834Z"/><path class="cls-89" d="M2405.89,3038.1c-.09,0-.21,0-.3,0a176.47,176.47,0,0,1-130-85.46c50.08-176,205.22-216.35,205.22-216.35l31.76,23.58c1.16,5.7,2.09,11.38,2.77,17C2531.33,2901.39,2444.73,3000.52,2405.89,3038.1Z"/><path class="cls-90" d="M2632.43,2834c0,15.24-.64,30.1-5.31,44.61-.54-71.27-42.36-114-63.25-130.84a113.16,113.16,0,0,0-11.61-8.42l-9.92-24.42,20-3.65,21-3.85C2614.06,2739.8,2632.4,2784.08,2632.43,2834Z"/><path class="cls-91" d="M2517.29,2711.2l-13.63,5.35q-6.78-4.31-13.48-7.91c-72.29-38.95-138.39-18.32-178.72,3.45,34.14-34.16,79.89-56.57,130.17-59.68a184,184,0,0,1,63.14,6.87c5.89,10.61,9,22.44,10.63,32.11A122,122,0,0,1,2517.29,2711.2Z"/><ellipse class="cls-2" cx="2514.21" cy="2732.57" rx="36.17" ry="38.49" transform="translate(-994.49 3948) rotate(-66.49)"/><g class="cls-92"><path class="cls-93" d="M2444.18,2988.23c-16.84-23.08,9.05-46.7,4.47-96.11-7-75-73.54-94.78-72.38-158.89.32-17.83,6-43.25,35.28-76.55-93.37,21.63-163.6,107.08-161.29,205.2,2.54,107.76,91.59,187.23,198.56,177.54,36.47-3.3,70.3-18.39,98.93-38.68C2508.26,3008.06,2462,3012.66,2444.18,2988.23Z"/></g><path class="cls-94" d="M3123.66,2922.78l-33-186.05c-6.59-37.08-40.06-59.85-74-49.52l-15.42,4.69a59.65,59.65,0,0,1-17.06,2.59l-34.56.21-144.74.85-38.81.22a73.2,73.2,0,0,1-19.74-2.59l-18.17-5c-41.42-11.32-85.73,14.9-96.19,58l-54.22,223.29c-9.13,37.57,11.37,72.46,47.33,81.31h0c39.7,9.78,82.94-16.89,94.53-57.35l17.93-62.63c3.71-13,15.29-22.58,28.21-23.5l211.78-15.09c11.2-.8,20.81,6.61,23.54,18.07L3014,2965c8.3,34.77,42.15,50.5,72.82,34.6h0C3113.49,2985.79,3129.05,2953.1,3123.66,2922.78Z"/><path class="cls-95" d="M2946.54,2794.67l-117.56,5c-10.6.45-19.06-9.48-18.83-22.17l1.5-82,154.15-1-1.4,77.57C2964.19,2784.19,2956.21,2794.26,2946.54,2794.67Z"/><path class="cls-96" d="M3038,2953.89c-.11-14,6.39-21.42,5.41-42.81-.45-10-1.76-38.44-19.45-52.62-17-13.63-41-7.6-72.32.23-40.58,10.17-39.19,20.18-67.82,24.88-42,6.9-56.7-12.64-87.76-1.78-15.56,5.44-27.58,15.82-36.68,26.69a29.72,29.72,0,0,1,6.29-1.18l211.78-15.09c11.2-.8,20.81,6.61,23.54,18.07L3014,2965c6.74,28.22,30.32,43.91,55.37,40.29C3044.2,2984.94,3038.09,2967.24,3038,2953.89Z"/><path class="cls-97" d="M2788.85,2777.25c-.65,35.7-29.88,66.11-66,68-36.93,1.89-66.93-26.67-66.24-63.84s31.77-67.62,68.67-68C2761.36,2712.94,2789.5,2741.55,2788.85,2777.25Z"/><path class="cls-98" d="M2859.78,2860.77c-.52,28.66-23.42,53.57-51.6,55.68-28.68,2.15-51.88-20.08-51.33-49.67s24.59-54.57,53.26-55.77C2838.26,2809.82,2860.3,2832.11,2859.78,2860.77Z"/><path class="cls-99" d="M2850.06,2861.33c-.42,23.16-19,43.24-41.69,44.87-23.07,1.65-41.66-16.26-41.22-40s19.72-43.88,42.77-44.92C2832.64,2820.23,2850.48,2838.18,2850.06,2861.33Z"/><path class="cls-100" d="M2842,2862c-.3,16.15-13.21,30.15-29.06,31.31-16.09,1.16-29.08-11.33-28.77-27.93s13.77-30.63,29.85-31.34C2829.85,2833.3,2842.28,2845.82,2842,2862Z"/><path class="cls-101" d="M2836.5,2862.28c-.23,13-10.68,24.33-23.46,25.22-12.95.91-23.36-9.16-23.12-22.49s11-24.64,24-25.25C2826.69,2839.16,2836.74,2849.25,2836.5,2862.28Z"/><path class="cls-102" d="M3007.67,2851.5c-.49,27.21-21.14,50.78-46.51,52.68-25.81,1.93-46.64-19.22-46.13-47.28s22.14-51.67,47.92-52.75C2988.31,2803.09,3008.16,2824.29,3007.67,2851.5Z"/><path class="cls-103" d="M2998.91,2852c-.4,22-17.11,41-37.58,42.44-20.75,1.49-37.45-15.56-37-38.09s17.75-41.55,38.49-42.49C2983.24,2813,2999.3,2830,2998.91,2852Z"/><path class="cls-104" d="M2995.73,2852.43c-.28,15.9-12.8,29.69-28.18,30.8-15.6,1.14-28.19-11.18-27.9-27.52s13.36-30.16,28.95-30.84C2984,2824.19,2996,2836.54,2995.73,2852.43Z"/><path class="cls-105" d="M2990.42,2852.74c-.23,12.85-10.36,24-22.76,24.82-12.56.88-22.66-9-22.42-22.18s10.71-24.25,23.26-24.84C2980.9,2830,2990.65,2839.9,2990.42,2852.74Z"/><path class="cls-106" d="M2789.58,2738.21h0a7.71,7.71,0,0,1-7.83-8L2782,2716a8.33,8.33,0,0,1,8.13-8.2h0a7.74,7.74,0,0,1,7.79,8l-.26,14.21A8.39,8.39,0,0,1,2789.58,2738.21Z"/><path class="cls-107" d="M2979.32,2734.37h0c-3.86.08-6.94-3.27-6.86-7.47l.24-13.38c.07-4.2,3.27-7.64,7.14-7.68h0c3.85,0,6.91,3.33,6.83,7.51l-.24,13.31C2986.36,2730.85,2983.18,2734.3,2979.32,2734.37Z"/><path class="cls-108" d="M2731.87,2731.46l-13.88.23a7.73,7.73,0,0,0-7.57,7.52l-.29,16.05a7.13,7.13,0,0,0,1.16,4.06l6.12,9.26a7,7,0,0,0,6.1,3.12l1.38,0a7.78,7.78,0,0,0,6.2-3.46l6.38-9.54a7.61,7.61,0,0,0,1.3-4.08l.29-15.92A7,7,0,0,0,2731.87,2731.46Z"/><path class="cls-109" d="M2730.11,2826.66l-13.89.63a6.86,6.86,0,0,1-7.29-7.06l.29-16.06a7.74,7.74,0,0,1,1.32-4.13l6.47-9.66a7.87,7.87,0,0,1,6.22-3.5l1.38-.05a7,7,0,0,1,6.08,3.08l6,9.15a7,7,0,0,1,1.15,4l-.29,15.92A7.94,7.94,0,0,1,2730.11,2826.66Z"/><path class="cls-110" d="M2675.67,2773.75l-.26,14.06a7.06,7.06,0,0,0,7.45,7.2l16.35-.58a7.85,7.85,0,0,0,4.16-1.38l9.62-6.6a7.82,7.82,0,0,0,3.44-6.26l0-1.37a7,7,0,0,0-3.2-6.06l-9.4-6a7.28,7.28,0,0,0-4.11-1.12l-16.35.44A8,8,0,0,0,2675.67,2773.75Z"/><path class="cls-111" d="M2771.32,2771l-.25,13.65a7.72,7.72,0,0,1-7.33,7.52l-15.71.56a7,7,0,0,1-4-1.08l-9.21-5.89a6.9,6.9,0,0,1-3.17-6l0-1.37a7.76,7.76,0,0,1,3.4-6.22l9.44-6.47a7.55,7.55,0,0,1,4.05-1.33l15.71-.42A6.84,6.84,0,0,1,2771.32,2771Z"/><path class="cls-112" d="M2735,2732.13l-13.88.23a7.75,7.75,0,0,0-7.56,7.52l-.29,16a7.15,7.15,0,0,0,1.16,4.06l6.12,9.25a7,7,0,0,0,6.1,3.12l1.37,0a7.78,7.78,0,0,0,6.2-3.46l6.38-9.53a7.61,7.61,0,0,0,1.3-4.08l.29-15.91A7,7,0,0,0,2735,2732.13Z"/><path class="cls-113" d="M2733.19,2827.3l-13.88.64a6.88,6.88,0,0,1-7.29-7.06l.3-16.05a7.65,7.65,0,0,1,1.31-4.14l6.47-9.65a7.86,7.86,0,0,1,6.22-3.5l1.38-.05a7,7,0,0,1,6.07,3.08l6,9.14a7,7,0,0,1,1.14,4l-.29,15.91A7.92,7.92,0,0,1,2733.19,2827.3Z"/><path class="cls-114" d="M2678.79,2774.42l-.26,14a7,7,0,0,0,7.44,7.2l16.34-.58a7.82,7.82,0,0,0,4.15-1.38l9.63-6.6a7.83,7.83,0,0,0,3.43-6.25l0-1.38a7,7,0,0,0-3.2-6.05l-9.39-6a7.28,7.28,0,0,0-4.11-1.13l-16.34.44A8,8,0,0,0,2678.79,2774.42Z"/><path class="cls-115" d="M2774.37,2771.63l-.25,13.65a7.7,7.7,0,0,1-7.32,7.51l-15.7.56a7,7,0,0,1-4-1.07l-9.22-5.89a6.92,6.92,0,0,1-3.16-6l0-1.37a7.78,7.78,0,0,1,3.39-6.22l9.44-6.47a7.55,7.55,0,0,1,4-1.33l15.7-.42A6.83,6.83,0,0,1,2774.37,2771.63Z"/><path class="cls-116" d="M2984.36,2770.8c-.6,33.39,23.6,59.2,53.51,57.67,29.32-1.5,53.12-28.8,53.7-61s-22.29-58.05-51.58-57.73C3010.11,2710.07,2985,2737.41,2984.36,2770.8Z"/><path class="cls-117" d="M3053.18,2731.56c-.15,8.31-6.33,15.19-13.85,15.37s-13.59-6.48-13.44-14.87,6.42-15.27,14-15.37S3053.33,2723.24,3053.18,2731.56Z"/><path class="cls-118" d="M3051.86,2805.8c-.15,8.31-6.34,15.35-13.86,15.72s-13.6-6.14-13.45-14.53,6.42-15.43,14-15.72S3052,2797.48,3051.86,2805.8Z"/><path class="cls-119" d="M3005.16,2754.86c7.69-.2,13.78,6.45,13.63,14.86s-6.48,15.46-14.18,15.74-13.91-6.38-13.76-14.87S2997.43,2755.06,3005.16,2754.86Z"/><path class="cls-120" d="M3072.48,2753.11c7.35-.2,13.16,6.31,13,14.54s-6.2,15.1-13.55,15.37-13.29-6.24-13.15-14.54S3065.09,2753.3,3072.48,2753.11Z"/><path class="cls-121" d="M3056.07,2732.21c-.15,8.31-6.33,15.19-13.85,15.37s-13.58-6.47-13.43-14.86,6.42-15.27,14-15.38S3056.22,2723.9,3056.07,2732.21Z"/><path class="cls-122" d="M3054.75,2806.43c-.15,8.31-6.34,15.35-13.86,15.72s-13.59-6.13-13.44-14.52,6.43-15.44,14-15.73S3054.9,2798.12,3054.75,2806.43Z"/><path class="cls-123" d="M3008.08,2755.51c7.68-.2,13.77,6.45,13.62,14.86s-6.48,15.45-14.17,15.73-13.9-6.37-13.75-14.86S3000.35,2755.71,3008.08,2755.51Z"/><path class="cls-124" d="M3075.36,2753.75c7.34-.19,13.15,6.32,13,14.54s-6.2,15.1-13.55,15.36-13.28-6.23-13.13-14.53S3068,2753.94,3075.36,2753.75Z"/><path class="cls-125" d="M2644.67,3025.17c1.55-16.09,23-19.2,27.7-39.54,6.45-27.85-29.48-40.88-25.66-70.78,3.74-29.23,41.3-42.08,36.2-59.62-2.54-8.72-12.27-7.22-25.31-19.14-18.4-16.8-22.21-40.91-23-47.81-5-43,29.79-75.52,36.06-81.37a113.11,113.11,0,0,1,32.29-21.11,79.63,79.63,0,0,0-71,60.38l-54.22,223.29c-9.13,37.57,11.37,72.46,47.33,81.31h0a72.44,72.44,0,0,0,34.11,0C2646.77,3040.3,2644,3031.75,2644.67,3025.17Z"/><path class="cls-126" d="M2922.39,2767.39c-16.76-9.49-27,2.15-39.23-6.51-14.26-10.12-4.93-29.33-19.25-40.62-12.09-9.53-24,0-41.7-7.11a42.49,42.49,0,0,1-10.77-6.31l-1.29,70.67c-.23,12.69,8.23,22.62,18.83,22.17l117.56-5a15.18,15.18,0,0,0,6.9-2,44.79,44.79,0,0,1-8.15-3.9C2933.12,2781.35,2933.64,2773.76,2922.39,2767.39Z"/><path class="cls-127" d="M985,3022.49s-2.42,19.28-.79,25.74,57.68,11.13,76.71,8.88-11.34-21.68-23.46-25.32S985,3022.49,985,3022.49Z"/><path class="cls-128" d="M1013.21,2990.33,1007.3,3029s-15.07,6.77-22.31.08l-.79-40.49Z"/><path class="cls-129" d="M697.21,2988.6s11.89,8.83,8.72,19.4-30.92,52.92-50.7,64.94-13.58-13-7.82-28.62,20.46-50,26.2-55.72S697.21,2988.6,697.21,2988.6Z"/><path class="cls-130" d="M718.6,2946.11c-5.75,16-11.28,29.2-15.6,38.92-9.57,21.5-14.8,29.57-20.73,36.56-5.16,6.09-17.39,19.09-20.68,16.93s5.61-18,22.85-64.29c2.51-6.71,10.42-28.12,10.42-28.12H718.6Z"/><path class="cls-131" d="M1130.6,2276.44a1001.23,1001.23,0,0,1,2.15,178.69c-7.67,98.86-27.43,161.42-52.22,266.84-15.16,64.42-35.57,159.23-54,277.81a52.12,52.12,0,0,1-33.13,6.5,50.5,50.5,0,0,1-19.91-7.56c-48.47-148.12-34.15-239.91-10.76-297.09,10-24.38,22.06-43.61,28.52-81.08,8.55-49.58-2-77.29-17.1-192.12-10.74-81.85-8.88-94.5-1.73-106.78C1001,2272.58,1088.37,2273.54,1130.6,2276.44Z"/><path class="cls-132" d="M1432.05,1862s6.8-26.68,18.12-33.73,27.33-14.57,31-17.66,7.94,6.15-2.62,13.23l-10.56,7.08a10.22,10.22,0,0,0,.43,4.53c1.67,5,7.38,8.45,14.44,9.1,27.11,5.68,37.7,6,41.83,4.74.62-.18,3-.94,4,.11,1.59,1.68-1.27,7-2.5,8.87-7.33,11.2-32.79,16.07-51.85,7.31-7-3.2-9.63-6.63-14.71-5.77-8.07,1.37-13,12-16,20.82Z"/><path class="cls-133" d="M963.76,2293.67c-29.7,153.35-58.84,233.89-80.9,279.45a766.14,766.14,0,0,0-40.74,99.44c-15.19,46-21.51,79.84-24.76,94.73-10.23,47-35.53,115.64-103.62,205.66-.84.5-12.45,7.07-23.55,1.21a22.73,22.73,0,0,1-9.53-9.89c8.9-86.06,19.12-158.39,28-214.2,1.87-11.71,10.06-62.93,22.91-130.6,5-26.48,12.4-65.29,21.23-105.14,11-49.63,27.84-117.15,53.82-198.06Z"/><path class="cls-134" d="M1453.91,1870.43l-23.15-20.58c-2.83,2.85-44,43.06-101.65,30.87-39.66-8.39-62.54-41-77.19-61.75-44-62.45-17.69-108.27-65.09-150.71-13.16-11.78-39-26-55.85-21.7-40.22,10.37-63.37,131.31-24.45,226.44,7.86,19.21,51.12,124.93,149.25,136.38C1335,2018.63,1419,1962.81,1453.91,1870.43Z"/><path class="cls-135" d="M989.05,1687.11c16.84-15.57,49.06-33.52,65.22-75.23,4.86-12.56,22.1-57.05-3.32-91.08-15.09-20.2-43.12-33.92-67.82-29.06-21.11,4.15-24.41,18.85-60.28,48.44-14,11.51-36.4,30-61.38,40.31-42.79,17.64-68.5,1-111.46,2.94-52.77,2.33-114.08,31.78-143.62,74.61-52.43,76,23.52,153.14-33.91,242.2-18.82,29.17-28.09,22.63-72.66,79.11s-66.94,84.83-63,119.49c5.51,48.09,57.31,94,106.09,97.15,47.65,3.05,77.94-34.44,102.2-18,17.26,11.67,7.39,34.37,25.73,61.65,23.64,35.17,70.1,42.17,77.6,43.3C818.12,2293.41,912,2211.74,951.92,2115,1023.84,1940.5,897.5,1771.73,989.05,1687.11Z"/><path class="cls-136" d="M962.68,2701.63c10-24.38,22.06-43.61,28.52-81.08,8.55-49.58-2-77.29-17.1-192.12-10.74-81.85-8.88-94.5-1.73-106.78,15.53-26.67,48.44-38.5,82-43.33-.44,1.72-.9,3.44-1.26,5.11-17.63,80.49,49.64,129.6,19.3,218.08-15,43.62-38.83,53.61-44.39,104.21-5.21,47.4,13.69,57.28,9.65,100.36-6,64.4-51.78,80-63.69,129.3-7.73,32-1.22,78.91,55.28,146.73-.94,5.85-1.88,11.71-2.81,17.67a52.14,52.14,0,0,1-33.13,6.5,50.5,50.5,0,0,1-19.91-7.56C925,2850.6,939.29,2758.81,962.68,2701.63Z"/><path class="cls-137" d="M1140,1762.36c72.53,57.28,64.46,167.15,109,172.72,13.62,1.7,12.87-8.74,45.36-19.3,47.51-15.44,69.83.16,103.25-11.58,13.84-4.86,31.84-15.24,49.57-39.73l6.71,6c-34.88,92.38-118.9,148.2-198.13,139-98.13-11.45-141.39-117.17-149.25-136.38-18.26-44.63-22.86-95-18.43-136.86A151.09,151.09,0,0,1,1140,1762.36Z"/><path class="cls-138" d="M1192.6,1675.51c-4.45-6.9-18.58-26-78.54-40.13-30-7.06-85.62-19.17-157.12-4-98.2,20.81-159.36,79.74-182.38,104.51,18.85,12.27,70.86,49.72,96.63,120.77,8,22.11,31.69,97.68-2.17,168.46-19.52,40.79-54,71.41-80.25,94.67-39.32,34.89-59.69,40.25-72.87,71.5-14.36,34,.11,50.63-17.72,73.93-19.15,25-41.58,13.39-74,38.69-33.25,25.92-21.42,47.25-51.67,75.89-44,41.61-102.24,28.1-105,46.82-2.34,16.11,39.08,38,74.27,46.83,69.69,17.55,130.47-11.91,148.55-21,50-25.14,41.4-41.42,79.55-60.58,63.89-32.09,107.55,3.62,253.06,7.29,78.8,2,118.64,2.45,140.47-24.21,19.94-24.36,9.46-51.07-2.51-166.19h0c-3.84-38.44-11.89-118.94-11.94-164.81,0-27.11,9.37-71.4,28.18-160,1.11-5.22,11.28-53.08,19.5-117C1204.07,1709.35,1203,1691.67,1192.6,1675.51Z"/><g class="cls-139"><path class="cls-140" d="M572.48,2379.78c30.25-28.64,18.42-50,51.67-75.89,32.45-25.3,54.88-13.67,74-38.69,17.83-23.3,3.36-39.9,17.72-73.93,13.18-31.25,33.55-36.61,72.87-71.5,26.21-23.26,60.73-53.88,80.25-94.67,33.86-70.78,10.18-146.35,2.17-168.46-25.77-71.05-77.78-108.5-96.63-120.77,1.81-2,4-4.19,6.24-6.53,124.19,17.06,196.61,88.83,205.56,110.08,20.7,49.12-12.07,67.16-12.92,208.83-.4,67.71,6.9,94.44-15.07,122.71-25.12,32.32-54.08,22.32-90.41,64.58-27.92,32.47-23.45,53.06-49.52,66.74-28,14.71-45.89-2.44-77.5,4.31-52.82,11.26-64.11,72.16-99,105.48-26.41,25.2-75.23,42.81-171.51,23.91-2.23-3.25-3.3-6.41-2.87-9.38C470.24,2407.88,528.52,2421.39,572.48,2379.78Z"/></g><path class="cls-141" d="M997.25,1554.59s-6.26,50.07-24.74,61.55-48.36,26.45-51.65,30.52,114.49,16.72,172.85-12.73h0c-19.23-4-24.46-5.49-24.46-5.49-5.22-1.47-15-4.22-24.72-9.78a84,84,0,0,1-27.18-25.13l.21-27.73Z"/><path class="cls-142" d="M996,1568.79s4.65,19.93,24.74,21c18,.91,25.72-43.28,15.3-53.1-3.47-3.27-11.33-5.8-17.73-4.78-4.5.71-19,8.5-19.15,24-3.45-2.81-7.36-3.24-9-1.66-2.15,2-.24,6.79.19,7.87A14.38,14.38,0,0,0,996,1568.79Z"/><path class="cls-143" d="M932.18,1874.64s16.13-32.26,25.8-38.71,53.19-9.26,65.31-7.86,13,10.44,2.89,17.21-38.84,14.51-43.84,20.32S941.86,1887.54,932.18,1874.64Z"/><path class="cls-144" d="M948.89,1876.82c13.36,28-46.94,93.6-114.19,125-13.71,6.4-112.11,52.31-156.32,8.93-36.54-35.84-13.5-110.5-5.28-137.16,40.38-130.88,166.25-198,219-222.31,40,98.5,17,142.62,8,156.41-9.48,14.4-36,44.69-64.19,71.4-19.83,18.79-32.19,27.94-30.51,30.85,2.1,3.61,25.43-3.37,115.94-48.05C931.84,1863.52,944.33,1867.28,948.89,1876.82Z"/></g></g></svg>